<svg id="Layer_1" data-name="Layer 1" xmlns="http://www.w3.org/2000/svg" viewBox="0 0 178 178"><defs><style>.cls-1{fill:#fefefe;}</style></defs><path class="cls-1" d="M359,179.94c0,11.27,0,22.55,0,33.82,0,1-.21,1.24-1.24,1.24q-87.76,0-175.52,0c-1,0-1.24-.21-1.24-1.24q0-87.75,0-175.51c0-1,.21-1.24,1.24-1.24q87.76,0,175.52,0c1.27,0,1.23.49,1.23,1.42q0,40.93,0,81.86c-.87-.06-.85-.84-1.06-1.38a8,8,0,0,0-7.89-5.38c-8.32,0-16.65,0-25,0-.58,0-1.15,0-1.73,0-2.43,0-2.66-.36-1.56-2.45a12.35,12.35,0,0,0,1.31-5.86q0-26.52,0-53a9.65,9.65,0,0,0-2.29-6.91,8,8,0,0,0-6.1-2.82H258.15A8,8,0,0,0,253.46,44c-9.75,6.92-19.5,13.86-29.38,20.6a8.5,8.5,0,0,0-3.69,7.6v37.11c0,3.49,0,3.49-3.24,4.56A8.09,8.09,0,0,0,215,115c-9.72,6.88-19.41,13.79-29.24,20.5a8.71,8.71,0,0,0-3.9,7.69q0,18.81,0,37.62,0,10,0,19.94c0,5.85,3.38,9.22,9.28,9.22q30.26,0,60.51,0a9,9,0,0,0,5.13-1.27,2.64,2.64,0,0,1,3.08,0A9.46,9.46,0,0,0,265,210q30.35,0,60.69,0a9.28,9.28,0,0,0,7-2.89q11.44-11.51,22.93-22.93a11.24,11.24,0,0,0,2.23-3.07C358.07,180.59,358.21,179.94,359,179.94Z" transform="translate(-181 -37)"/><path d="M359,179.94c-1,2.91-3.23,4.94-5.35,7-6.76,6.73-13.53,13.45-20.22,20.25a10.59,10.59,0,0,1-8,3.31q-30.09-.09-60.18,0a9.35,9.35,0,0,1-6.18-1.78c-.62-.49-1-.26-1.48.11a9.05,9.05,0,0,1-5.53,1.67q-30.69,0-61.39,0c-5.51,0-9.23-3.76-9.23-9.27q0-29,0-58.09c0-3.8,1.65-6.46,4.82-8.59,7.46-5,14.79-10.28,22.16-15.45,2.12-1.49,4.21-3,6.32-4.55a7.08,7.08,0,0,1,3.8-1.53c1.3,0,1.43-.62,1.43-1.71,0-10.29,0-20.58,0-30.87,0-3,0-6,0-9a9.05,9.05,0,0,1,4.33-7.63q14.23-9.87,28.37-19.86a10,10,0,0,1,5.9-2.1c18.62,0,37.23,0,55.84,0,5.52,0,9.13,3.8,9.15,9.55,0,9.59,0,19.19,0,28.78,0,8.27,0,16.54,0,24.8,0,2.77-.26,5.4-2.37,7.89h27.15c6.22,0,8.62,1.67,10.7,7.4Z" transform="translate(-181 -37)"/><path class="cls-1" d="M295.29,204.59H265.13c-2.88,0-3.85-1-3.86-3.84V143.37c0-2.85,1-3.89,3.85-3.89h60.49c2.73,0,3.78,1.06,3.79,3.78v57.55c0,2.75-1,3.78-3.77,3.78Z" transform="translate(-181 -37)"/><path class="cls-1" d="M221.45,204.59H191.11c-2.86,0-3.82-1-3.82-3.86q0-28.68,0-57.37c0-2.87,1-3.88,3.84-3.88h60.33c2.91,0,3.88,1,3.88,3.81q0,28.78,0,57.55c0,2.8-1,3.75-3.73,3.75Z" transform="translate(-181 -37)"/><path class="cls-1" d="M259.68,133.55H229.86c-3.23,0-4.09-.87-4.09-4.1V72.59c0-3.24.86-4.1,4.09-4.1h60c3.13,0,4,.86,4,4v57c0,3.16-.85,4-4,4Z" transform="translate(-181 -37)"/><path class="cls-1" d="M299.74,125.85V89.74c0-5.73,0-11.45,0-17.17a6.26,6.26,0,0,0-.15-2.58c-1-2.09.27-3,1.6-4.19,5-4.34,10-8.74,15-13.12.34-.3.71-.57,1.08-.86.48.5.25,1,.25,1.52,0,17.4,0,34.8,0,52.2a5.71,5.71,0,0,1-1.84,4.44c-4.88,4.76-9.66,9.63-14.48,14.45C300.85,124.83,300.43,125.2,299.74,125.85Z" transform="translate(-181 -37)"/><path class="cls-1" d="M353.06,122.6v1.94c0,17.4,0,34.79,0,52.18a5.37,5.37,0,0,1-1.7,4.14c-5,4.89-9.91,9.86-14.84,14.82a5,5,0,0,0-.68,1.17l-.55-.35v-1.82q0-25.49,0-51a7.51,7.51,0,0,0-.24-2.74c-.72-1.78,0-2.76,1.32-3.89,5.24-4.44,10.38-9,15.55-13.55Z" transform="translate(-181 -37)"/><path class="cls-1" d="M348.35,118.81c-6.05,5.29-11.74,10.25-17.4,15.24a1.12,1.12,0,0,1-1.38.16,10.93,10.93,0,0,0-4.25-.67H300.88c0-.71.56-.93.89-1.26Q308,126,314.26,119.78a2.29,2.29,0,0,1,1.71-1C326.6,118.82,337.22,118.81,348.35,118.81Z" transform="translate(-181 -37)"/><path class="cls-1" d="M312.55,48l-9.22,8.07c-2.52,2.21-5.06,4.39-7.55,6.62a1.55,1.55,0,0,1-2,.4,9.43,9.43,0,0,0-4.09-.55H270.45c0-.7.6-.87.95-1.15q8.25-6.45,16.53-12.87a2.82,2.82,0,0,1,1.83-.79c7.45,0,14.9,0,22.35,0C312.2,47.78,312.29,47.87,312.55,48Z" transform="translate(-181 -37)"/><path class="cls-1" d="M237,62.19c5.65-4,11.4-7.83,16.92-12a11.69,11.69,0,0,1,7.93-2.51c5.64.21,11.28.06,17.38.06l-8.84,6.9-9.16,7.12a2.64,2.64,0,0,1-1.67.78H237.13Z" transform="translate(-181 -37)"/><path class="cls-1" d="M198.54,133.23l17.77-12.5c.75-.53,1.45-1.13,2.24-1.6s1.35-.47,1.33.77c0,3.57,0,7.15,0,10.72,0,1,.84,2.22.15,2.73s-2,.19-3,.19H198.64Z" transform="translate(-181 -37)"/><path d="M279,198.68c-2,0-3.92,0-5.88,0a5.73,5.73,0,0,1-5.85-5.44,50.53,50.53,0,0,1,0-6.74,5.71,5.71,0,0,1,5.94-5.53q5.79,0,11.6,0a5.84,5.84,0,0,1,6.08,5.78,61.65,61.65,0,0,1,0,6.23,5.85,5.85,0,0,1-6,5.7C282.94,198.71,281,198.68,279,198.68Z" transform="translate(-181 -37)"/><path d="M316.06,186.86c-1.44,0-2.88,0-4.32,0a3,3,0,0,1-3.07-3,2.87,2.87,0,0,1,3.05-2.85q4.32-.06,8.64,0a2.92,2.92,0,0,1,3.08,2.83,3,3,0,0,1-3.06,3C318.94,186.91,317.5,186.86,316.06,186.86Z" transform="translate(-181 -37)"/><path d="M315.94,198.68c-1.44,0-2.88,0-4.32,0a2.94,2.94,0,1,1,0-5.87c2.94,0,5.88-.06,8.82,0a2.94,2.94,0,0,1,3,3,3,3,0,0,1-3,2.93h-4.49Z" transform="translate(-181 -37)"/><path d="M205.14,181c2,0,3.92,0,5.88,0a5.73,5.73,0,0,1,5.81,5.65q.13,3.19,0,6.41a5.73,5.73,0,0,1-5.81,5.65q-6,.08-11.94,0a5.84,5.84,0,0,1-5.86-5.66c-.09-2.13-.09-4.27,0-6.4a5.82,5.82,0,0,1,5.86-5.64C201.1,180.92,203.12,181,205.14,181Z" transform="translate(-181 -37)"/><path d="M242,198.68c-1.44,0-2.88,0-4.32,0a2.94,2.94,0,1,1,0-5.88q4.32-.07,8.64,0a2.94,2.94,0,1,1-.05,5.88C244.91,198.71,243.47,198.68,242,198.68Z" transform="translate(-181 -37)"/><path d="M242,186.86c-1.43,0-2.88,0-4.31,0a2.88,2.88,0,0,1-3-2.95,2.82,2.82,0,0,1,2.94-2.93c2.94-.05,5.87-.05,8.81,0a2.82,2.82,0,0,1,3,2.92,2.94,2.94,0,0,1-2.94,3H242Z" transform="translate(-181 -37)"/><path d="M243.39,127.62c-2,0-3.93,0-5.89,0a5.8,5.8,0,0,1-5.8-5.85c-.06-2,0-3.93,0-5.89a5.88,5.88,0,0,1,5.92-6c3.92-.06,7.85-.06,11.77,0a5.81,5.81,0,0,1,6,5.89c0,2,.06,4,0,6.06a5.74,5.74,0,0,1-5.87,5.77C247.43,127.66,245.41,127.63,243.39,127.62Z" transform="translate(-181 -37)"/><path d="M280.49,115.8c-1.44,0-2.88,0-4.32,0a2.94,2.94,0,1,1-.08-5.87c2.93-.07,5.87-.06,8.81,0a2.88,2.88,0,0,1,3,2.91,2.91,2.91,0,0,1-3.09,3h-4.32Z" transform="translate(-181 -37)"/><path d="M280.48,127.61c-1.49,0-3,.06-4.49,0a2.92,2.92,0,0,1-.24-5.81c3.16-.14,6.33-.13,9.5,0a2.8,2.8,0,0,1,2.64,3,2.87,2.87,0,0,1-2.92,2.79h-4.49Z" transform="translate(-181 -37)"/><path class="cls-1" d="M279,192.77c-1.62,0-3.23,0-4.84,0-.86,0-1.09-.24-1.05-1.07.07-1.55-.54-3.58.22-4.53s2.92-.27,4.46-.31c2-.06,4,0,6,0,.9,0,1.15.25,1.18,1.16.14,4.76.17,4.76-4.63,4.76Z" transform="translate(-181 -37)"/><path class="cls-1" d="M204.91,192.77c-1.61,0-3.23,0-4.84,0-.74,0-1.08-.22-1-1a1,1,0,0,0,0-.17c.08-1.54-.63-3.51.28-4.5s2.83-.23,4.31-.26c2.07,0,4.14,0,6.21,0,.85,0,1.09.25,1.05,1.07-.07,1.55.53,3.56-.23,4.52s-2.91.23-4.44.33C205.83,192.8,205.37,192.77,204.91,192.77Z" transform="translate(-181 -37)"/><path class="cls-1" d="M243.47,115.8a33.75,33.75,0,0,0,4.15,0c1.64-.2,1.87.49,1.84,1.92-.09,4,0,4-4,4-2.13,0-4.28-.08-6.41,0-1.27.07-1.6-.37-1.48-1.55a12.83,12.83,0,0,0,0-2.77c-.13-1.24.19-1.78,1.57-1.65S242,115.8,243.47,115.8Z" transform="translate(-181 -37)"/></svg>