<svg id="Layer_1" data-name="Layer 1" xmlns="http://www.w3.org/2000/svg" viewBox="0 0 158 158"><defs><style>.cls-1{fill:#fefefe;}.cls-2{fill:#030303;}.cls-3{fill:#fdfdfd;}.cls-4{fill:#050505;}.cls-5{fill:#fcfcfc;}.cls-6{fill:#fbfbfb;}.cls-7{fill:#f9f9f9;}.cls-8{fill:#1e1e1e;}</style></defs><path class="cls-1" d="M244,205q-25.86,0-51.71,0c-1,0-1.28-.16-1.28-1.24q.06-77.73,0-155.45c0-1.17.31-1.31,1.36-1.31Q270,47,347.64,47c1.05,0,1.36.15,1.36,1.31q-.06,77.73,0,155.45c0,1.08-.26,1.24-1.28,1.24q-26-.06-52,0a.44.44,0,0,1,.38-.56c3.43-.73,5.63-3.29,8-5.52C311,192.37,318,186,324.86,179.45c3.35-3.17,6.81-6.22,10.06-9.51a9.86,9.86,0,0,0,.46-13.51,10,10,0,0,0-13.86-1.12c-2,1.64-2,1.64-4.24.2-2.7-1.79-5.43-3.51-8.12-5.3a3.24,3.24,0,0,1-1.57-3c0-4.3.26-8.6.59-12.89.83-10.9-.08-21.49-4-31.89-6.05-16-12.43-31.94-18.49-48-1.71-4.55-5-6.94-9.22-6.75a8.42,8.42,0,0,0-4.83,1.79,2.1,2.1,0,0,1-2.88.06c-5.31-3.62-11.32-1.84-13.79,4.1-1.46,3.5-2.71,7.09-4.09,10.62a3,3,0,0,0,.23,3,2.45,2.45,0,0,0,3.75.42,5.68,5.68,0,0,0,1.42-2.35c1.07-2.83,2.2-5.63,3.23-8.48a10.34,10.34,0,0,1,.61-1.41c.94-1.71,2.37-2.56,3.82-2.28a3.93,3.93,0,0,1,2.85,3.47,8.21,8.21,0,0,1-.34,3.19c-1.86,7.89-3.67,15.79-5.52,23.68-.22,1-.47,1.89-.64,2.85a10.13,10.13,0,0,1-2.74,5.53c-2,2-2.76,4.78-3.76,7.35a171.06,171.06,0,0,0-6.19,18.86,27.63,27.63,0,0,0-.59,2.7,2.75,2.75,0,0,0,2,3.19,2.49,2.49,0,0,0,3-1.74c.88-2.31,1.24-4.77,2-7.12,1.79-5.84,3.8-11.6,6.16-17.24a11.93,11.93,0,0,1,1-1.91c1-1.62,2.15-2.17,3.54-1.74a3.41,3.41,0,0,1,2.43,3.68c-.22,2.24-.5,4.48-.69,6.73-.65,7.39-1.92,14.74-2,22.19-.06,5.1,1,10.09,1.68,15.12a70.26,70.26,0,0,1,.43,18.09c-1.33,10.18-6.79,17.73-15.17,23.37-1.15.77-2,.38-2.89-.39-1.65-1.47-3.21-3-4.81-4.54-3.8-3.59-7.68-7.1-11.46-10.72-1.92-1.84-3.89-3.64-5.85-5.45-1.33-1.24-1.35-1.63.2-2.66,3.2-2.13,6.43-4.24,9.66-6.32a4.1,4.1,0,0,0,2.13-4.1c-.47-5.41-.53-10.84-.83-16.26-.55-9.84-.21-19.59,3.79-28.87,1.5-3.48,2.63-7.12,4-10.67a6.34,6.34,0,0,0,.29-.87A2.68,2.68,0,0,0,244,89.17a2.55,2.55,0,0,0-3.38,1.59c-1.16,2.57-2.07,5.24-3,7.9A107.39,107.39,0,0,0,233,113a49.32,49.32,0,0,0-1,15.28c.29,2.65.16,5.32.28,8,.17,3.69.55,7.37.43,11.07a3.1,3.1,0,0,1-1.37,2.73c-3,2.05-6.13,3.94-9.15,6-1.23.83-2.12.39-3.14-.45-4.57-3.76-10.25-3.43-14.07.76a9.75,9.75,0,0,0,.24,13.4c6.13,6.12,12.63,11.86,18.93,17.8,3.74,3.51,7.55,7,11.21,10.53,1.47,1.44,3.09,2.7,4.54,4.15a10.23,10.23,0,0,0,2.91,1.71C243.28,204.18,244,204.2,244,205Z" transform="translate(-191 -47)"/><path class="cls-2" d="M244,205c-4.34-1.58-7.19-5.09-10.42-8.08q-14-13-27.92-26c-5.84-5.5-4.33-14.61,2.88-17.45a9.91,9.91,0,0,1,11.09,2.18,1.58,1.58,0,0,0,2.41.16c3-2.09,6.14-4.09,9.26-6.06a2.09,2.09,0,0,0,1.15-2.2c-.37-7.12-.6-14.25-1-21.37-.46-8.85,1.82-17.15,4.89-25.31,1.2-3.2,2.39-6.41,3.6-9.62.85-2.24,2.4-3.16,4.2-2.52s2.41,2.47,1.54,4.76c-1.93,5.12-3.83,10.25-5.6,15.43a47.35,47.35,0,0,0-2.45,17.55c.32,7.38.58,14.77,1,22.14.16,2.48-.46,4.15-2.7,5.45-3.28,1.9-6.36,4.13-9.55,6.17-.81.51-1.07.79-.2,1.59Q237.67,172.31,249,183c.83.78,1.34.68,2.18.12,10-6.61,15.1-15.85,15.41-27.82a106.21,106.21,0,0,0-1.76-19.59,65.75,65.75,0,0,1-.1-18.69c.77-6.26,1.35-12.54,2-18.81a3.41,3.41,0,0,0-.56-2.48,2.51,2.51,0,0,0-4.26-.14,12.54,12.54,0,0,0-1.65,3.11,157.87,157.87,0,0,0-7.63,23.14,3.15,3.15,0,0,1-3.37,2.71,3.1,3.1,0,0,1-2.64-3.93,148.63,148.63,0,0,1,6.15-19.76c.72-1.86,1.49-3.7,2.24-5.55A7.9,7.9,0,0,1,257,92c2.25-1.8,2.63-4.36,3.21-6.88q3-13.17,6.09-26.33a5.47,5.47,0,0,0-.08-3.18,2.93,2.93,0,0,0-5.15-1,6.64,6.64,0,0,0-1,2q-1.82,4.81-3.67,9.6c-.84,2.16-2.36,3-4.13,2.35s-2.44-2.41-1.62-4.58c1.3-3.4,2.64-6.77,3.89-10.18,2.52-6.84,10.37-8.51,15.09-4.08.6.57.88.3,1.36-.09,5.24-4.29,12.32-2.61,14.76,3.75,6.52,17,13.4,34,19.65,51.11,3.49,9.56,3.86,19.31,3.25,29.25-.3,4.71-.45,9.43-.7,14.15a1.33,1.33,0,0,0,.67,1.39c3.44,2.21,6.89,4.42,10.27,6.74,1,.68,1.35-.06,1.86-.52,5.55-5,13.94-3.31,16.78,3.4a10.27,10.27,0,0,1-2.66,11.79c-5.49,5.18-11,10.31-16.53,15.45-4.73,4.41-9.48,8.8-14.18,13.24-2.47,2.33-4.87,4.75-8.35,5.53h-4c-7.39-1.44-10.14-9.36-7.38-15,.81-1.65.76-1.68-.71-2.73a38.24,38.24,0,0,1-12.56-14.67,7.87,7.87,0,0,0-.81-1.51c-.54.15-.57.67-.75,1.05A38.56,38.56,0,0,1,257,187c-1.73,1.26-1.71,1.28-.89,3.22a10.71,10.71,0,0,1-4.75,13.88A11.78,11.78,0,0,1,248,205Z" transform="translate(-191 -47)"/><path class="cls-3" d="M248,205c.33-.62,1-.32,1.48-.48a10.36,10.36,0,0,0,5.73-15.14c-.53-.9-.47-1.28.4-1.88a37.77,37.77,0,0,0,14.27-17.27,2.65,2.65,0,0,1,.33-.45c.47,1,.85,1.94,1.29,2.84a38.81,38.81,0,0,0,13.21,14.9c.57.39,1.16.59.57,1.61-3.58,6.17-1,13,5.71,15.43.26.1.65,0,.72.44Z" transform="translate(-191 -47)"/><path class="cls-4" d="M251.17,78.81A3.07,3.07,0,0,1,248,81.73a3.12,3.12,0,0,1-3-3.24,3,3,0,0,1,3.3-2.88A3,3,0,0,1,251.17,78.81Z" transform="translate(-191 -47)"/><path class="cls-3" d="M302.41,132.68c-.34,7.15-.57,12.17-.83,17.19a3.57,3.57,0,0,0,1.79,3.47c3.53,2.27,7,4.61,10.56,6.87.77.5,1,.73.19,1.49q-11.52,10.65-22.95,21.41c-.68.64-1.1.56-1.8.1-9.64-6.27-14.94-15.05-15.57-26.6a80.25,80.25,0,0,1,1.42-18.83c1.45-8,1.06-15.9,0-23.87-.67-5.24-1.14-10.5-1.7-15.75a3.14,3.14,0,0,1,1.48-3.3,2.25,2.25,0,0,1,3.16.47,11.9,11.9,0,0,1,1.84,3.35,158.14,158.14,0,0,1,7.63,23.13,3.15,3.15,0,0,0,3.37,2.71,3.1,3.1,0,0,0,2.63-3.93,148.5,148.5,0,0,0-6.42-20.47,49.51,49.51,0,0,0-2.85-6.61,1.84,1.84,0,0,0-.33-.52c-3.51-3.08-3.81-7.48-4.77-11.61q-2.64-11.28-5.25-22.57a5.61,5.61,0,0,1,0-3,2.94,2.94,0,0,1,2.46-2.24,2.9,2.9,0,0,1,2.91,1.34,5.61,5.61,0,0,1,.71,1.35c5.85,15.6,12.06,31.06,18,46.62C302.2,113.24,303.55,123.81,302.41,132.68Z" transform="translate(-191 -47)"/><path class="cls-5" d="M208.24,162.86a4.19,4.19,0,0,1,7.09-2.89c2.95,2.7,5.86,5.45,8.79,8.17q12.21,11.4,24.42,22.78a5.16,5.16,0,0,1,1.91,3.05,4.15,4.15,0,0,1-2.1,4.28,3.94,3.94,0,0,1-4.72-.43c-1.46-1.22-2.8-2.57-4.19-3.86q-14.69-13.69-29.38-27.38A4.61,4.61,0,0,1,208.24,162.86Z" transform="translate(-191 -47)"/><path class="cls-6" d="M332.07,163a4.69,4.69,0,0,1-1.89,3.69q-12.51,11.64-25,23.3c-2.74,2.55-5.45,5.13-8.22,7.65a4.08,4.08,0,0,1-5,.69,4.15,4.15,0,0,1-2.15-4.25,4.2,4.2,0,0,1,1.42-2.64l33.53-31.28a4.12,4.12,0,0,1,4.81-.93A4,4,0,0,1,332.07,163Z" transform="translate(-191 -47)"/><path class="cls-7" d="M270.31,70q2.06,8.81,4.12,17.6c.14.59.07,1-.64,1.07-.05,0-.09,0-.14.06-1.35.37-2.42,1.93-3.56,1.83s-2.22-1.53-3.58-1.88c-.69-.17-.77-.5-.63-1.09Q268,78.82,270,70Z" transform="translate(-191 -47)"/><path class="cls-8" d="M270.25,125.28a1.85,1.85,0,0,1-.21,2C269.85,126.37,269.66,125.87,270.25,125.28Z" transform="translate(-191 -47)"/></svg>