<?xml version="1.0" standalone="no"?>
<!DOCTYPE svg PUBLIC "-//W3C//DTD SVG 20010904//EN"
 "http://www.w3.org/TR/2001/REC-SVG-20010904/DTD/svg10.dtd">
<svg version="1.0" xmlns="http://www.w3.org/2000/svg"
 width="1250.000000pt" height="1250.000000pt" viewBox="0 0 1250.000000 1250.000000"
 preserveAspectRatio="xMidYMid meet">
<metadata>
Created by potrace 1.14, written by Peter Selinger 2001-2017
</metadata>
<g transform="translate(0.000000,1250.000000) scale(0.100000,-0.100000)"
fill="#000000" stroke="none">
<path d="M6248 12469 c-64 -5 -100 -12 -138 -24 -3 -1 -18 -5 -35 -10 -172
-48 -355 -206 -443 -381 -97 -192 -108 -424 -30 -624 22 -57 33 -78 77 -145
257 -395 831 -453 1167 -118 236 235 296 590 148 884 -76 152 -216 287 -368
354 -120 53 -247 74 -378 64z"/>
<path d="M7995 11155 c-79 -16 -215 -80 -260 -123 -27 -25 -162 -137 -241
-200 -124 -99 -358 -233 -534 -305 -74 -31 -234 -80 -303 -92 -12 -3 -33 -7
-47 -10 -106 -20 -316 -27 -440 -14 -194 21 -393 81 -585 175 -150 74 -163 81
-270 153 -86 59 -196 144 -260 203 -22 20 -58 52 -80 72 -49 44 -181 110 -255
126 -255 59 -546 -73 -675 -305 -62 -112 -68 -144 -71 -352 -3 -215 -8 -284
-30 -393 -58 -284 -223 -553 -429 -701 l-43 -31 53 -48 c29 -26 62 -56 72 -66
11 -11 71 -66 133 -124 63 -58 143 -133 179 -166 37 -34 80 -74 96 -89 17 -15
76 -69 132 -122 56 -52 105 -94 110 -93 4 0 46 29 93 64 206 154 466 307 694
410 100 44 367 142 409 150 7 1 21 5 32 9 11 3 31 8 45 11 14 3 75 16 135 30
61 14 137 28 170 31 32 4 62 8 65 10 29 18 504 27 655 12 502 -49 1028 -217
1461 -468 60 -34 118 -67 129 -73 33 -18 136 -87 211 -142 l70 -52 95 100 c51
55 110 116 129 137 33 36 249 266 315 336 17 18 54 56 83 87 l53 54 -46 50
c-67 71 -86 95 -121 144 -52 74 -130 249 -157 350 -49 179 -52 231 -44 655 2
102 -4 140 -33 218 -21 57 -81 153 -122 197 -144 156 -364 227 -573 185z"/>
<path d="M9278 8959 c-40 -45 -86 -96 -103 -113 -16 -18 -64 -70 -105 -116
-41 -46 -84 -93 -95 -104 -11 -12 -58 -64 -105 -116 -47 -52 -92 -101 -100
-110 -75 -80 -120 -133 -120 -140 0 -5 13 -24 28 -42 16 -18 67 -87 114 -153
283 -397 483 -847 564 -1270 4 -22 9 -47 10 -55 2 -8 6 -35 9 -60 3 -25 8 -56
10 -70 6 -32 16 -127 21 -188 4 -57 4 -361 0 -417 -15 -194 -53 -429 -97 -594
-17 -64 -32 -123 -34 -131 -6 -25 -72 -221 -99 -295 -98 -259 -268 -582 -432
-817 l-53 -76 52 -48 c53 -49 275 -255 332 -309 18 -16 81 -75 140 -130 60
-55 126 -117 148 -137 42 -39 60 -39 89 0 20 27 128 115 183 149 107 67 287
141 380 156 17 3 62 11 100 18 67 12 282 17 465 10 163 -6 318 52 433 162 127
122 185 249 193 422 8 185 -49 317 -212 495 -136 148 -277 355 -375 550 -52
104 -69 146 -114 275 -19 55 -43 152 -50 200 -3 22 -8 46 -10 52 -8 22 -19
186 -18 258 2 119 13 222 33 315 6 25 12 55 15 68 2 13 9 40 16 60 19 59 49
146 56 162 3 8 7 20 8 25 9 39 178 352 217 400 4 6 40 53 80 105 39 52 75 97
78 100 17 14 123 144 143 177 27 44 64 138 75 191 11 61 7 224 -7 277 -43 156
-179 327 -311 392 -120 59 -162 66 -415 68 -126 1 -241 5 -255 9 -14 3 -38 8
-55 10 -50 8 -176 44 -241 69 -73 29 -234 116 -254 137 -3 3 -21 17 -40 31
-54 41 -133 119 -178 176 l-41 53 -73 -81z"/>
<path d="M3005 8933 c-38 -45 -166 -148 -240 -192 -107 -65 -271 -122 -445
-157 -19 -3 -148 -8 -287 -10 -283 -4 -331 -11 -448 -72 -99 -51 -209 -163
-257 -263 -51 -104 -68 -184 -64 -299 6 -165 58 -281 191 -426 100 -110 109
-120 179 -209 241 -305 381 -616 434 -959 9 -58 8 -361 0 -423 -48 -326 -192
-650 -427 -958 -25 -33 -56 -71 -68 -85 -12 -14 -35 -41 -52 -60 -41 -47 -95
-151 -116 -224 -18 -62 -25 -203 -13 -271 32 -183 159 -358 319 -438 107 -54
185 -71 304 -68 357 9 453 -1 641 -64 181 -61 321 -149 460 -291 l102 -102 78
91 c43 51 83 97 89 103 5 6 33 37 60 69 28 32 61 70 75 85 27 29 41 46 135
155 33 38 65 75 70 81 6 6 31 35 57 65 26 30 63 72 82 94 30 33 34 42 23 56
-6 10 -53 71 -103 136 -321 416 -533 868 -629 1338 -9 44 -18 87 -20 95 -1 8
-6 38 -9 65 -4 28 -8 61 -11 75 -18 98 -26 459 -14 605 10 108 18 189 25 230
10 63 29 168 39 215 3 14 7 34 9 45 28 145 137 483 211 651 97 222 202 421
314 589 36 55 67 105 69 111 2 6 -12 22 -30 36 -18 15 -49 41 -69 60 -20 18
-67 60 -104 93 -37 33 -73 65 -79 70 -6 6 -51 46 -101 90 -49 43 -95 84 -101
90 -6 5 -44 39 -84 75 -40 36 -92 82 -114 102 -23 21 -43 37 -46 37 -3 0 -18
-16 -35 -36z"/>
<path d="M6098 8745 c-2 -1 -37 -6 -78 -9 -86 -8 -122 -13 -165 -20 -16 -3
-46 -8 -65 -11 -142 -24 -400 -103 -537 -166 -24 -10 -47 -19 -53 -19 -21 0
-9 -27 29 -62 64 -61 67 -80 32 -186 -46 -136 -42 -169 28 -242 71 -75 68
-138 -13 -254 -82 -118 -163 -377 -201 -646 -4 -25 -12 -51 -18 -59 -19 -23
-83 -6 -204 53 -121 59 -152 66 -177 40 -18 -18 -20 -47 -6 -124 15 -85 20
-107 30 -135 13 -34 13 -110 0 -157 -18 -65 -90 -109 -200 -123 -25 -3 -54 -7
-65 -10 -11 -2 -31 -4 -43 -4 -23 -1 -24 -3 -17 -53 22 -155 5 -209 -146 -484
-38 -69 -77 -187 -82 -248 -3 -44 2 -94 17 -166 2 -14 9 -47 15 -75 5 -27 17
-79 25 -115 8 -36 18 -81 21 -100 3 -19 8 -42 10 -50 7 -25 14 -71 20 -137 13
-150 49 -262 142 -448 70 -140 92 -174 94 -140 10 275 29 304 237 364 112 32
183 63 203 87 31 38 94 55 221 59 196 7 220 14 363 109 96 63 279 155 404 202
58 22 119 53 139 70 33 28 37 37 38 85 3 71 -24 128 -143 308 -133 198 -154
238 -175 318 -11 45 -10 48 17 178 30 148 23 306 -19 405 -36 86 -121 169
-195 190 -20 6 -81 13 -136 16 -55 3 -118 10 -139 14 -23 5 -47 5 -56 0 -10
-5 -31 -12 -48 -15 -39 -6 -72 25 -73 69 -5 176 17 263 82 324 19 17 76 55
127 83 51 29 103 60 114 69 l22 17 -23 47 c-31 66 -35 99 -19 131 27 50 123
164 144 170 19 6 210 -43 309 -78 106 -38 198 -92 250 -147 27 -28 30 -37 29
-93 -1 -34 -4 -89 -7 -123 -9 -103 10 -109 138 -38 134 74 147 78 199 65 24
-6 57 -16 73 -23 15 -6 30 -12 33 -13 13 -3 161 -81 220 -115 81 -48 109 -69
200 -150 144 -128 217 -133 379 -26 252 168 226 299 -94 463 -249 127 -307
185 -355 361 -13 45 -27 82 -31 82 -5 0 -9 4 -9 10 0 5 -16 32 -35 58 -128
179 -76 292 137 298 85 3 87 3 179 -44 84 -43 98 -47 163 -47 77 0 199 31 193
49 -2 6 -79 50 -173 97 -274 139 -537 216 -869 255 -55 6 -401 14 -407 9z"/>
<path d="M5620 7492 c-34 -12 -80 -87 -80 -130 0 -59 100 -111 157 -81 50 27
68 102 38 159 -21 40 -78 66 -115 52z"/>
<path d="M8576 6990 c-42 -13 -85 -58 -97 -103 -9 -34 -12 -156 -6 -247 2 -19
-1 -57 -5 -85 -14 -90 -17 -189 -8 -225 6 -19 26 -53 46 -75 45 -51 75 -109
72 -138 -8 -59 -56 -89 -253 -157 -144 -49 -266 -113 -278 -145 -8 -20 13 -40
60 -58 40 -16 62 -20 188 -32 77 -8 95 -24 88 -76 -5 -32 0 -49 26 -91 52 -84
51 -117 -6 -177 -30 -33 -54 -109 -41 -133 5 -10 23 -25 41 -34 57 -29 87 -64
87 -103 l0 -36 16 30 c32 62 107 243 135 330 42 127 92 338 104 435 3 25 9 77
14 115 13 107 11 396 -4 525 -16 138 -47 296 -79 405 -25 87 -35 95 -100 75z"/>
<path d="M11580 6973 c-30 -7 -65 -15 -76 -18 -12 -3 -47 -16 -79 -30 -211
-94 -370 -281 -431 -507 -23 -86 -28 -265 -9 -347 38 -161 99 -267 224 -391
84 -83 144 -121 276 -174 105 -43 282 -52 420 -22 290 62 544 337 582 631 22
165 -2 305 -76 456 -45 90 -55 103 -146 194 -87 86 -99 95 -200 145 -144 71
-345 97 -485 63z"/>
<path d="M681 6878 c-230 -25 -452 -172 -568 -374 -35 -62 -72 -152 -80 -194
-2 -14 -8 -42 -13 -63 -13 -58 -10 -199 6 -274 37 -179 144 -348 291 -461 58
-45 185 -106 268 -128 94 -25 292 -25 384 0 326 89 555 377 566 712 16 468
-383 834 -854 782z"/>
<path d="M8137 6519 c-117 -70 -215 -188 -221 -264 -4 -46 33 -86 101 -109 57
-20 84 -20 126 -2 66 28 102 91 120 211 3 17 10 44 17 60 23 57 23 99 0 120
-34 31 -72 27 -143 -16z"/>
<path d="M7283 5379 c-28 -22 -72 -47 -97 -54 -47 -14 -155 -14 -254 0 -46 7
-56 5 -87 -16 -70 -48 -120 -201 -82 -249 7 -9 41 -30 77 -47 110 -54 173
-135 185 -239 3 -25 10 -67 15 -93 13 -67 6 -210 -12 -252 -24 -56 -53 -76
-137 -94 -142 -32 -181 -66 -237 -206 -19 -45 -46 -101 -61 -122 -59 -84 -273
-198 -418 -222 -22 -3 -98 -8 -170 -10 -71 -2 -146 -7 -165 -11 l-35 -7 45 -8
c146 -24 506 -33 665 -17 227 24 550 110 740 198 39 17 86 39 105 48 115 53
407 239 460 292 3 3 34 30 70 60 113 96 297 290 346 366 14 21 14 24 -6 44
-11 11 -34 49 -51 84 -40 83 -65 106 -120 110 -24 2 -56 8 -70 14 -14 6 -31 7
-38 2 -30 -18 -51 2 -71 67 -11 36 -20 71 -20 77 0 39 -32 114 -52 123 -26 11
-99 8 -142 -7 -55 -19 -74 -13 -103 33 -44 68 -113 146 -143 162 -47 25 -81
18 -137 -26z"/>
<path d="M8294 3846 c-27 -26 -211 -164 -299 -223 -260 -174 -559 -321 -834
-408 -114 -37 -282 -80 -345 -89 -21 -4 -41 -8 -45 -10 -3 -2 -31 -7 -61 -10
-30 -4 -66 -9 -80 -11 -153 -27 -695 -27 -800 0 -8 2 -35 7 -60 10 -25 3 -67
10 -95 15 -27 5 -61 12 -75 14 -108 19 -317 75 -450 121 -332 115 -649 272
-908 448 -101 68 -103 69 -120 50 -38 -45 -154 -172 -184 -204 -18 -19 -68
-73 -111 -120 -93 -103 -99 -111 -204 -225 -44 -49 -95 -105 -111 -124 l-31
-35 67 -70 c78 -82 102 -112 102 -124 0 -5 3 -11 8 -13 12 -5 58 -81 87 -143
35 -78 75 -185 69 -185 -2 0 0 -8 5 -18 10 -19 17 -46 27 -112 3 -19 7 -41 9
-48 9 -24 19 -176 18 -257 -1 -44 -2 -132 -3 -195 -1 -63 3 -126 8 -140 5 -14
10 -29 11 -35 3 -25 15 -55 47 -121 132 -267 465 -396 749 -290 83 32 135 65
225 145 248 220 409 332 623 436 147 71 335 133 482 160 127 23 386 26 505 5
41 -7 82 -14 90 -15 24 -3 140 -35 200 -55 117 -38 274 -109 365 -165 22 -14
47 -28 55 -32 19 -10 163 -106 170 -113 3 -4 23 -19 45 -35 22 -17 42 -32 45
-35 3 -3 34 -30 70 -60 36 -30 73 -62 83 -71 26 -23 135 -77 197 -96 37 -11
91 -17 165 -17 123 0 200 19 310 77 85 46 192 157 238 248 65 131 73 179 67
449 -2 110 4 212 16 275 3 11 7 36 10 55 3 19 17 69 30 110 13 41 23 78 24 83
0 16 85 175 128 242 43 66 203 236 247 262 19 11 18 14 -20 50 -22 21 -69 63
-104 93 -35 30 -73 64 -85 75 -24 22 -136 120 -176 155 -14 12 -41 36 -60 53
-19 18 -71 64 -115 102 -44 39 -98 87 -120 107 -73 66 -89 77 -101 64z"/>
<path d="M6230 1509 c-140 -17 -223 -46 -330 -115 -155 -99 -252 -219 -313
-390 -32 -88 -38 -125 -42 -245 -7 -246 121 -497 324 -633 155 -103 233 -126
436 -126 127 0 164 4 221 21 253 78 444 275 514 532 35 127 32 301 -6 422 -22
67 -79 184 -106 217 -13 15 -40 47 -61 72 -140 167 -414 272 -637 245z"/>
</g>
</svg>
