<svg id="Layer_1" data-name="Layer 1" xmlns="http://www.w3.org/2000/svg" viewBox="0 0 184 184"><defs><style>.cls-1{fill:#fdfdfd;}.cls-2{fill:#030303;}.cls-3{fill:#060606;}.cls-4{fill:#fbfbfb;}</style></defs><path class="cls-1" d="M277,34q41.77,0,83.54,0c1.23,0,1.47.24,1.47,1.47q-.06,90.53,0,181.06c0,1.23-.24,1.47-1.47,1.47q-90.52-.06-181.06,0c-1.23,0-1.47-.24-1.47-1.47q.08-41.42,0-82.82c1.08.21.86,1.18.94,1.85A102.46,102.46,0,0,0,181.79,150a88.91,88.91,0,0,0,14.13,29.39c1.53,2.08,2,3.77,1,6.33A14.37,14.37,0,0,0,210,205.61c6,0,10.68-2.63,13.31-8.11,2.76-5.78,2.08-11.36-2.23-16.17s-9.56-5.82-15.53-4.09c-2.69.78-2.93.8-4.51-1.38a85.21,85.21,0,0,1-15.68-39.93,82.64,82.64,0,0,1,3.18-35.22A85.22,85.22,0,0,1,248,43.62a81.9,81.9,0,0,1,25.54-2.84,84.6,84.6,0,0,1,13,1.57A3.12,3.12,0,0,0,290,40.74a2.81,2.81,0,0,0-.32-3.34,3.26,3.26,0,0,0-2.15-1.15c-3-.68-6-.93-9-1.38C277.92,34.78,277.1,35,277,34Z" transform="translate(-178 -34)"/><path class="cls-2" d="M277,34c2.12.78,4.4.55,6.57,1,1.39.31,2.82.47,4.22.76a3.63,3.63,0,0,1,3.13,4.24,3.68,3.68,0,0,1-4.51,2.78c-11.34-2.2-22.72-2.44-34,.22-31.39,7.41-53,26.34-63,56.94-9,27.44-4,53.22,12.8,76.7a1.44,1.44,0,0,0,2.13.58,14.88,14.88,0,0,1,16.8,3.31,15.05,15.05,0,1,1-24,3.26,1.66,1.66,0,0,0-.07-2.17,91.62,91.62,0,0,1-18.55-46.39c-.05-.53.25-1.23-.46-1.58v-3.59a3.73,3.73,0,0,0,0-2.51v-4.3a2.77,2.77,0,0,0,0-2.15v-3.23c.4-1.86.23-3.77.5-5.65a89.55,89.55,0,0,1,21.64-47,91.37,91.37,0,0,1,51.68-30.05c3.45-.71,6.95-.8,10.43-1.19h2.15a10.43,10.43,0,0,0,4.31,0h2.15a3.73,3.73,0,0,0,2.51,0Z" transform="translate(-178 -34)"/><path class="cls-1" d="M262.29,34c-1.92.81-4,.69-6,1a91.78,91.78,0,0,0-76.85,75c-.4,2.35-.66,4.72-1,7.08,0,.32.11.75-.38.87q0-41.19,0-82.37c0-1.3.27-1.56,1.56-1.56Q220.93,34.07,262.29,34Z" transform="translate(-178 -34)"/><path class="cls-3" d="M268.75,34a5.65,5.65,0,0,1-4.31,0Z" transform="translate(-178 -34)"/><path class="cls-3" d="M273.41,34a2.07,2.07,0,0,1-2.51,0Z" transform="translate(-178 -34)"/><path class="cls-3" d="M178,127.61a2.07,2.07,0,0,1,0,2.51Z" transform="translate(-178 -34)"/><path class="cls-3" d="M178,121.16a1.62,1.62,0,0,1,0,2.15Z" transform="translate(-178 -34)"/><path class="cls-2" d="M335.08,125.72c0,3.58,0,7.17,0,10.75,0,2.73-1.34,4.05-4.07,4.09-1.79,0-3.58,0-5.37,0a1.17,1.17,0,0,0-1.36,1,51.8,51.8,0,0,1-4.78,11.52,1.15,1.15,0,0,0,.22,1.67c1.34,1.27,2.65,2.58,3.93,3.91,1.75,1.83,1.81,3.74,0,5.53Q316,172,308.22,179.68a3.53,3.53,0,0,1-5.39,0c-1.35-1.27-2.65-2.58-3.93-3.93a1.23,1.23,0,0,0-1.79-.31,50.36,50.36,0,0,1-11.35,4.73,1.34,1.34,0,0,0-1.19,1.6c.06,1.85.05,3.7,0,5.56a3.47,3.47,0,0,1-3.71,3.7q-11,.06-22,0c-2.37,0-3.71-1.42-3.76-3.84-.05-2.15.68-4.73-.27-6.33s-3.81-1.5-5.78-2.33a58.43,58.43,0,0,1-6.44-3.07,1.24,1.24,0,0,0-1.81.26c-1.22,1.31-2.5,2.57-3.79,3.81-1.9,1.82-3.8,1.86-5.65,0q-7.69-7.64-15.33-15.34c-1.78-1.8-1.75-3.69,0-5.51,1.48-1.56,3.91-2.91,4.23-4.66s-1.58-3.77-2.38-5.73c-.88-2.15-1.72-4.32-2.38-6.54a1.44,1.44,0,0,0-1.74-1.25c-1.73.07-3.46,0-5.2,0-2.52-.05-3.92-1.39-3.93-3.86q0-10.93,0-21.87c0-2.4,1.39-3.73,3.8-3.79,2.15-.05,4.83.73,6.3-.28s1.64-3.77,2.39-5.76a44.23,44.23,0,0,1,3-6.46,1.22,1.22,0,0,0-.25-1.81c-1.31-1.22-2.56-2.5-3.81-3.79-1.76-1.83-1.83-3.76-.09-5.52q7.69-7.77,15.47-15.46c1.78-1.77,3.68-1.71,5.52,0,1.29,1.24,2.56,2.5,3.79,3.81a1.25,1.25,0,0,0,1.81.28,50.37,50.37,0,0,1,11.36-4.71c1-.27,1.18-.74,1.16-1.63,0-1.85,0-3.71,0-5.56a3.43,3.43,0,0,1,3.62-3.6q11.12-.08,22.22,0a3.47,3.47,0,0,1,3.66,3.75c.05,1.86.06,3.71,0,5.56,0,.87.27,1.23,1.13,1.47a50.83,50.83,0,0,1,11.36,4.71,1.24,1.24,0,0,0,1.82-.23c1.22-1.31,2.5-2.57,3.79-3.81,1.84-1.77,3.74-1.85,5.52-.1q7.77,7.68,15.46,15.46c1.76,1.77,1.71,3.69,0,5.52-1.24,1.3-2.5,2.57-3.81,3.8a1.23,1.23,0,0,0-.3,1.8,50.4,50.4,0,0,1,4.72,11.36,1.35,1.35,0,0,0,1.62,1.18c1.79-.06,3.58,0,5.37,0,2.52,0,3.83,1.38,3.85,3.93C335.1,118.55,335.08,122.13,335.08,125.72Z" transform="translate(-178 -34)"/><path class="cls-2" d="M269.85,217.62a89.79,89.79,0,0,1-17.61-1.73c-2.48-.51-3.68-2.1-3.29-4.25s2.18-3.19,4.61-2.75c22.29,4,43.17.31,62.16-12.12,20.33-13.29,33-32,37.28-56S351.87,95,337.67,75.26c-.78-1.09-1.32-1.36-2.67-.78a15,15,0,1,1,9.35-13,12.92,12.92,0,0,1-1.76,6.13,2,2,0,0,0,.2,2.63,90.48,90.48,0,0,1,16.11,33.6c12.55,50.47-19.73,101.7-70.54,111.94A93.43,93.43,0,0,1,269.85,217.62Z" transform="translate(-178 -34)"/><path class="cls-3" d="M302.88,40.46A3.51,3.51,0,0,1,306.4,44a3.63,3.63,0,0,1-3.61,3.65,3.69,3.69,0,0,1-3.54-3.55A3.56,3.56,0,0,1,302.88,40.46Z" transform="translate(-178 -34)"/><path class="cls-3" d="M240.5,207.61a3.48,3.48,0,0,1-3.55,3.63,3.58,3.58,0,0,1-3.58-3.47,3.68,3.68,0,0,1,3.6-3.67A3.57,3.57,0,0,1,240.5,207.61Z" transform="translate(-178 -34)"/><path class="cls-4" d="M218.2,191.07a7.89,7.89,0,1,1-7.82-7.89A7.91,7.91,0,0,1,218.2,191.07Z" transform="translate(-178 -34)"/><path class="cls-1" d="M269.82,67.74c2.09,0,4.19.08,6.27,0,1.17-.06,1.41.36,1.35,1.41-.09,1.49-.06,3,0,4.48a3.61,3.61,0,0,0,3.1,3.81,50.45,50.45,0,0,1,15.77,6.51c2,1.25,3.48,1,5.16-.56,1.08-1,2.15-2.08,3.16-3.18.61-.66,1-.74,1.69,0q4.5,4.62,9.13,9.12c.8.77.59,1.18-.1,1.81-1.1,1-2.14,2.08-3.17,3.16-1.47,1.54-1.72,3.1-.61,4.86a52.14,52.14,0,0,1,6.67,16.1,3.54,3.54,0,0,0,3.71,3c1.61.07,3.23.06,4.84,0,.81,0,1.16.12,1.15,1.06q-.07,6.54,0,13.08c0,.88-.28,1.11-1.12,1.08-1.61-.06-3.23,0-4.84,0a3.52,3.52,0,0,0-3.73,2.95,52.07,52.07,0,0,1-6.66,16.11,3.57,3.57,0,0,0,.57,4.86c1.08,1.12,2.17,2.23,3.31,3.29.64.59.77,1,.05,1.69q-4.62,4.5-9.12,9.13c-.76.78-1.17.62-1.81-.08-1-1.1-2.07-2.15-3.16-3.17-1.63-1.56-3.13-1.78-5-.59a52,52,0,0,1-15.93,6.61,3.57,3.57,0,0,0-3.06,3.83c0,1.55-.05,3.11,0,4.66,0,.87-.13,1.25-1.14,1.24q-6.45-.09-12.91,0c-1,0-1.21-.29-1.17-1.21.07-1.55.05-3.11,0-4.66-.06-2.15-.94-3.36-3-3.86a52.87,52.87,0,0,1-16.09-6.69c-1.78-1.11-3.3-.85-4.86.65-1.12,1.07-2.25,2.15-3.28,3.3-.65.73-1.05.62-1.68,0q-4.51-4.6-9.13-9.13c-.67-.66-.66-1.06,0-1.69,1.15-1,2.23-2.16,3.3-3.28a3.61,3.61,0,0,0,.61-4.87,51.46,51.46,0,0,1-6.67-16.1,3.53,3.53,0,0,0-3.72-3c-1.61,0-3.23-.05-4.84,0-.82,0-1.14-.15-1.13-1.06,0-4.36.05-8.73,0-13.09,0-.9.29-1.1,1.13-1.07,1.55.06,3.1,0,4.66,0,2.24-.07,3.42-1,3.93-3.16A51.84,51.84,0,0,1,228,99.26c1.22-1.94,1-3.47-.62-5.16-1-1.07-2.07-2.16-3.19-3.15-.73-.66-.6-1.06,0-1.68q4.6-4.51,9.13-9.12c.67-.69,1.07-.64,1.69,0,1.05,1.14,2.16,2.23,3.28,3.3a3.54,3.54,0,0,0,4.72.62,52.47,52.47,0,0,1,16.26-6.73,3.58,3.58,0,0,0,2.93-3.77c0-1.49.07-3,0-4.48-.07-1.06.18-1.47,1.34-1.41C265.64,67.82,267.73,67.74,269.82,67.74Z" transform="translate(-178 -34)"/><path class="cls-4" d="M329.37,68.46a7.89,7.89,0,1,1,0-15.77,7.89,7.89,0,0,1,0,15.77Z" transform="translate(-178 -34)"/><path class="cls-2" d="M270.05,96.18a29.64,29.64,0,1,1-29.87,29.37A29.76,29.76,0,0,1,270.05,96.18Z" transform="translate(-178 -34)"/><path class="cls-1" d="M292.29,125.58a22.47,22.47,0,1,1-22.67-22.22A22.59,22.59,0,0,1,292.29,125.58Z" transform="translate(-178 -34)"/></svg>