<svg width="24" height="24" viewBox="0 0 24 24" fill="none" xmlns="http://www.w3.org/2000/svg">
<g clip-path="url(#clip0_1226_9778)">
<path d="M7.08195 23.2929L0.707107 16.9181L13.5414 4.08379L18.8538 5.14628L19.9163 10.4586L7.08195 23.2929Z" stroke="white"/>
<path d="M6.3416 17.6589C6.33019 17.3481 6.20386 17.0577 5.98276 16.8366C5.50396 16.3578 4.72491 16.3578 4.24611 16.8366L2.98438 18.0984L5.90138 21.0154L7.16312 19.7536C7.39529 19.5218 7.5231 19.2134 7.5231 18.8852C7.5231 18.5571 7.3952 18.2486 7.16312 18.0168C6.93574 17.7895 6.6402 17.6699 6.3416 17.6589ZM6.60682 19.1973L5.90138 19.9027L4.09706 18.0984L4.80249 17.3929C4.97485 17.2214 5.25419 17.2214 5.42646 17.3929C5.50991 17.4764 5.55593 17.5869 5.55593 17.7049C5.55593 17.823 5.50991 17.9335 5.42646 18.0169L4.83629 18.6071L5.39259 19.1634L5.98276 18.5732C6.15512 18.4017 6.43446 18.4017 6.60673 18.5732C6.69018 18.6567 6.7362 18.7672 6.7362 18.8852C6.7362 19.0033 6.69018 19.1138 6.60682 19.1973Z" fill="white"/>
<path d="M13.0994 7.9841L12.4277 8.65574L15.3447 11.5727L16.0164 10.9011C16.4059 10.5116 16.6207 9.99341 16.6207 9.44264C16.6207 8.89188 16.4059 8.37367 16.0164 7.98418C15.2118 7.17993 13.904 7.17993 13.0994 7.9841ZM15.4601 10.3448L15.3448 10.4601L13.5405 8.65574L13.6558 8.54048C14.1531 8.04317 14.9628 8.04317 15.4601 8.54048C15.7008 8.78166 15.8339 9.1019 15.8339 9.44264C15.8338 9.78338 15.7008 10.1036 15.4601 10.3448Z" fill="white"/>
<path d="M8.81901 18.0984L6.45839 15.7378L7.16382 15.0324C7.33617 14.8608 7.61552 14.8608 7.78779 15.0324C7.87124 15.1158 7.91726 15.2264 7.91726 15.3443C7.91726 15.4624 7.87124 15.573 7.78779 15.6563L7.19762 16.2465L7.75392 16.8028L8.3236 16.2331L9.799 17.1183L10.3727 16.5447L8.68557 15.5324C8.69499 15.4703 8.70408 15.408 8.70408 15.3439C8.70408 15.0158 8.57618 14.7073 8.34409 14.4756C7.86529 13.9968 7.08624 13.9968 6.60744 14.4756L5.3457 15.7377L8.26271 18.6547L8.81901 18.0984Z" fill="white"/>
<path d="M11.1785 15.7377L9.99811 14.5573L11.0155 13.5399L12.1959 14.7203L12.7522 14.164L9.83518 11.2469L7.70508 13.3771L10.6221 16.2941L11.1785 15.7377ZM8.81776 13.3771L9.83518 12.3596L10.4592 12.9836L9.44173 14.001L8.81776 13.3771Z" fill="white"/>
<path d="M15.1135 11.8032L12.1965 8.88623L11.6402 9.44261L13.3599 11.1627L10.4937 10.5891L10.0664 11.0163L11.5249 12.4748L12.9834 13.9333L13.5397 13.377L11.8196 11.6569L14.6862 12.2306L15.1135 11.8032Z" fill="white"/>
<path d="M19.8695 0C17.6579 0 15.8521 1.74805 15.7482 3.93442H16.5351C16.6378 2.18199 18.0915 0.786902 19.8695 0.786902C21.7136 0.786902 23.2138 2.28709 23.2138 4.13115C23.2138 5.97521 21.7136 7.4754 19.8695 7.4754C19.4859 7.4754 19.1165 7.40376 18.7675 7.28264C18.843 7.09889 18.8859 6.89902 18.8859 6.68858C18.8859 5.82063 18.18 5.11478 17.3121 5.11478C16.4441 5.11478 15.7383 5.82063 15.7383 6.68858C15.7383 7.55654 16.4442 8.2623 17.3122 8.2623C17.6702 8.2623 17.9968 8.13754 18.2615 7.93536C18.7608 8.14588 19.3045 8.2623 19.8695 8.2623C22.1475 8.2623 24.0007 6.40915 24.0007 4.13115C24.0007 1.85315 22.1476 0 19.8695 0ZM18.0991 6.6885C18.0991 6.77624 18.0814 6.85887 18.055 6.93752C17.6636 6.68412 17.3271 6.34776 17.0667 5.94448C17.1442 5.91886 17.2257 5.9016 17.3122 5.9016C17.7461 5.90168 18.0991 6.25456 18.0991 6.6885ZM17.3122 7.4754C16.8782 7.4754 16.5253 7.12252 16.5253 6.6885C16.5253 6.64677 16.5311 6.60703 16.5375 6.56729C16.7912 6.91546 17.0966 7.21373 17.4373 7.46276C17.3964 7.46953 17.355 7.4754 17.3122 7.4754Z" fill="white"/>
</g>
<defs>
<clipPath id="clip0_1226_9778">
<rect width="24" height="24" fill="white"/>
</clipPath>
</defs>
</svg>
