<svg width="24" height="25" viewBox="0 0 24 25" fill="none" xmlns="http://www.w3.org/2000/svg">
<path d="M11.998 4.50334e-07C11.8963 4.50334e-07 11.8015 0.0506553 11.7451 0.135343L11.7462 0.134905L11.7455 0.135518L8.40452 5.14834C8.37128 5.19812 8.35352 5.257 8.35352 5.31675C8.35352 5.39741 8.38554 5.47466 8.44258 5.53179C8.49962 5.58866 8.57687 5.62068 8.65753 5.62068L10.8897 5.62024C10.8978 5.62024 10.9054 5.62339 10.911 5.62925C10.9167 5.63485 10.9199 5.64246 10.9199 5.65051L10.9213 13.0307H10.9219C11.0264 13.1342 11.128 13.2407 11.2267 13.3499L11.2251 5.31631L11.2238 5.315L8.65989 5.31544L11.998 0.306204L15.338 5.3143L12.7742 5.31474L12.7729 5.31614L12.7741 11.6788C12.8726 11.5696 12.9742 11.463 13.0786 11.3595L13.0793 11.3596L13.0782 5.65007C13.0782 5.63345 13.0918 5.6198 13.1084 5.6198L15.3405 5.61937C15.4526 5.61937 15.5557 5.55778 15.6085 5.459C15.6614 5.35997 15.6556 5.2402 15.5933 5.14703L15.5929 5.14615L12.2509 0.135343C12.1944 0.0506553 12.0994 -0.000174535 11.998 4.50334e-07Z" fill="white"/>
<path d="M18.685 6.98947L23.6922 10.3262L18.6862 13.6648L18.6857 11.1023L18.6837 11.1003C15.4198 11.1009 12.7743 13.7474 12.7748 17.0114L12.7762 23.6944C12.7762 24.1213 12.4301 24.4676 12.0032 24.4676C11.5761 24.4677 11.2299 24.1217 11.2298 23.6946L11.2286 17.0116C11.2278 12.8937 14.5654 9.55476 18.6833 9.55398L18.6855 9.55196L18.685 6.98947ZM18.6828 6.68091C18.6338 6.68091 18.5842 6.69307 18.5393 6.71704H18.539C18.44 6.77014 18.3782 6.87338 18.3782 6.98571L18.3786 9.22494C18.3786 9.24034 18.3667 9.2532 18.3513 9.25433L18.3506 9.25442L18.3498 9.25451C14.2172 9.43001 10.9211 12.8361 10.9219 17.0116L10.9232 23.6946C10.9233 24.291 11.4068 24.7744 12.0032 24.7743C12.5996 24.7742 13.083 24.2907 13.0827 23.6943L13.0816 17.0113C13.081 14.0297 15.4093 11.5916 18.3471 11.417H18.3511L18.3518 11.4171C18.3672 11.4181 18.3791 11.431 18.3791 11.4465L18.3795 13.6687C18.3795 13.7811 18.4414 13.8843 18.5406 13.9373C18.5415 13.9379 18.5423 13.9384 18.5433 13.9391L18.5449 13.9394H18.5446C18.5885 13.9621 18.6366 13.9733 18.6841 13.9733C18.7433 13.9733 18.8022 13.9561 18.8533 13.9222V13.922L23.8638 10.5804V10.5805L23.8649 10.5796C23.9498 10.5231 24.0005 10.4281 24.0005 10.3261C24.0005 10.2249 23.9502 10.1303 23.8663 10.0737H23.8658L23.8656 10.0732L23.8647 10.0727L18.8519 6.73218V6.73209H18.8517C18.8009 6.69814 18.7419 6.68091 18.6828 6.68091Z" fill="white"/>
<path d="M5.31658 8.35388C5.25805 8.35397 5.1996 8.37077 5.14904 8.40419L5.14738 8.40524L0.13578 11.7477C0.0509173 11.8042 0 11.8995 0 12.0014C0 12.1033 0.0510048 12.1986 0.135867 12.2551L5.14869 15.5956L5.15166 15.5949L5.14921 15.596C5.20013 15.6297 5.25901 15.6469 5.31797 15.6469C5.36723 15.6468 5.41675 15.6348 5.4618 15.6107L5.45883 15.61L5.46294 15.6092L5.4618 15.6107C5.56101 15.5576 5.62287 15.4543 5.62287 15.3418L5.62243 13.1196C5.62243 13.1112 5.62593 13.1035 5.63205 13.0979C5.63739 13.093 5.64439 13.0903 5.65165 13.0903C5.65261 13.0903 5.65349 13.0903 5.65445 13.0905C8.08903 13.2346 10.1053 14.9328 10.7248 17.2069V17.0117C10.7247 16.7902 10.7338 16.571 10.7515 16.3541C9.84778 14.2478 7.75475 12.7728 5.31736 12.7732L5.31509 12.7756L5.31553 15.3375L0.309178 12.0013L5.3143 8.66324L5.31474 11.2252L5.3171 11.2276C7.55055 11.2271 9.55479 12.2087 10.9215 13.7643V13.7649L10.922 13.7649C11.0275 13.885 11.1292 14.0084 11.2268 14.1351C11.2342 14.1446 11.2415 14.1543 11.2489 14.1638C11.2911 14.0536 11.3358 13.9445 11.3826 13.8367C11.3322 13.7729 11.2803 13.7101 11.2274 13.6481L11.2267 13.648C11.1288 13.5325 11.0269 13.4199 10.9219 13.3105C9.58077 11.9122 7.7215 11.015 5.65279 10.9274L5.65226 10.9273C5.65156 10.9273 5.65156 10.9273 5.65139 10.9273C5.64395 10.9273 5.63704 10.9246 5.63162 10.9198C5.62549 10.9142 5.62199 10.9063 5.62199 10.8981L5.62155 8.65877C5.62155 8.54679 5.56014 8.44382 5.46154 8.39063L5.4604 8.38993C5.41535 8.36587 5.36583 8.35388 5.31658 8.35388Z" fill="white"/>
</svg>
