<svg width="24" height="24" viewBox="0 0 24 24" fill="none" xmlns="http://www.w3.org/2000/svg">
<path d="M23.6256 21.7533H1.43982C1.25599 21.7533 1.07693 21.6804 0.947631 21.5533C0.818369 21.4263 0.747344 21.2582 0.747344 21.0791V1.875C0.747344 1.66957 0.581069 1.5033 0.375644 1.5033C0.170181 1.5033 0.00390625 1.66957 0.00390625 1.875V21.0791C0.00390625 21.4592 0.154056 21.8159 0.426531 22.0833C0.696794 22.3498 1.05679 22.4967 1.43982 22.4967H23.6256C23.8311 22.4967 23.9973 22.3305 23.9973 22.125C23.9973 21.9196 23.8311 21.7533 23.6256 21.7533Z" fill="white"/>
<path d="M3.75041 18.3794C3.85001 18.3794 3.94961 18.3403 4.02393 18.263L9.66652 12.3901L13.6798 15.8859C13.7681 15.9628 13.8886 15.994 14.0021 15.972C14.1171 15.9496 14.2152 15.8749 14.268 15.7702L18.7887 6.76918L19.2558 8.84551C19.2982 9.03339 19.4649 9.16119 19.6498 9.16119C19.6791 9.16119 19.7091 9.15789 19.7388 9.15129C19.9567 9.10224 20.0933 8.88579 20.0446 8.66825L19.3696 5.66825C19.3437 5.5529 19.2682 5.45476 19.1638 5.39945C19.0587 5.3438 18.9349 5.33686 18.8258 5.38153L15.7507 6.60466C15.5435 6.68705 15.442 6.92218 15.5248 7.12944C15.6076 7.33708 15.8427 7.43889 16.0496 7.35541L18.0433 6.56248L13.8095 14.9927L9.89212 11.5807C9.74051 11.4478 9.51014 11.4581 9.36952 11.6038L3.47684 17.7371C3.33179 17.8884 3.33656 18.1286 3.48746 18.2736C3.56107 18.3443 3.65591 18.3794 3.75041 18.3794Z" fill="white"/>
</svg>
