<svg width="18" height="18" viewBox="0 0 18 18" fill="none" xmlns="http://www.w3.org/2000/svg">
<path d="M9 1.62165C11.4031 1.62165 11.6878 1.6308 12.6368 1.67407C13.5143 1.71412 13.9908 1.86075 14.308 1.98398C14.7281 2.14725 15.0278 2.34225 15.3428 2.65718C15.6578 2.97218 15.8527 3.27195 16.016 3.69203C16.1392 4.0092 16.2859 4.48575 16.3259 5.36318C16.3692 6.31223 16.3784 6.59685 16.3784 8.99993C16.3784 11.4031 16.3692 11.6877 16.3259 12.6368C16.2859 13.5143 16.1392 13.9907 16.016 14.3079C15.8527 14.728 15.6578 15.0278 15.3428 15.3428C15.0278 15.6577 14.7281 15.8527 14.308 16.016C13.9908 16.1393 13.5143 16.2858 12.6368 16.3259C11.6879 16.3691 11.4033 16.3784 9 16.3784C6.5967 16.3784 6.31215 16.3691 5.36325 16.3259C4.48575 16.2858 4.0092 16.1393 3.69203 16.016C3.27195 15.8527 2.97218 15.6577 2.65725 15.3428C2.34233 15.0278 2.14725 14.728 1.98398 14.3079C1.86075 13.9907 1.71412 13.5143 1.67407 12.6368C1.6308 11.6877 1.62165 11.4031 1.62165 8.99993C1.62165 6.59685 1.6308 6.31223 1.67407 5.36318C1.71412 4.48575 1.86075 4.0092 1.98398 3.69203C2.14725 3.27195 2.34225 2.97218 2.65725 2.65725C2.97218 2.34225 3.27195 2.14725 3.69203 1.98398C4.0092 1.86075 4.48575 1.71412 5.36325 1.67407C6.31222 1.6308 6.59693 1.62165 9 1.62165ZM9 0C6.55575 0 6.24923 0.0103499 5.2893 0.0541499C4.3314 0.0978749 3.6771 0.249975 3.10462 0.4725C2.5128 0.70245 2.0109 1.01018 1.51058 1.51058C1.01018 2.0109 0.70245 2.5128 0.4725 3.10462C0.249975 3.6771 0.0978749 4.33133 0.0541499 5.2893C0.0103499 6.24923 0 6.55575 0 8.99993C0 11.4443 0.0103499 11.7507 0.0541499 12.7106C0.0978749 13.6686 0.249975 14.3228 0.4725 14.8953C0.70245 15.4871 1.01018 15.989 1.51058 16.4894C2.0109 16.9898 2.5128 17.2975 3.10462 17.5274C3.6771 17.75 4.3314 17.9021 5.2893 17.9458C6.24923 17.9896 6.55575 17.9999 9 17.9999C11.4443 17.9999 11.7508 17.9896 12.7107 17.9458C13.6686 17.9021 14.3229 17.75 14.8954 17.5274C15.4872 17.2975 15.9891 16.9898 16.4894 16.4894C16.9898 15.989 17.2976 15.4871 17.5275 14.8953C17.75 14.3228 17.9021 13.6686 17.9459 12.7106C17.9897 11.7507 18 11.4443 18 8.99993C18 6.55575 17.9897 6.24923 17.9459 5.2893C17.9021 4.33133 17.75 3.6771 17.5275 3.10462C17.2976 2.5128 16.9898 2.0109 16.4894 1.51058C15.9891 1.01018 15.4872 0.70245 14.8954 0.4725C14.3229 0.249975 13.6686 0.0978749 12.7107 0.0541499C11.7508 0.0103499 11.4443 0 9 0Z" fill="white"/>
<path d="M9.00439 4.38232C6.45191 4.38232 4.38281 6.45142 4.38281 9.0039C4.38281 11.5564 6.45191 13.6255 9.00439 13.6255C11.5569 13.6255 13.626 11.5564 13.626 9.0039C13.626 6.45142 11.5569 4.38232 9.00439 4.38232ZM9.00439 12.0039C7.34756 12.0039 6.00439 10.6607 6.00439 9.0039C6.00439 7.34707 7.34756 6.0039 9.00439 6.0039C10.6613 6.0039 12.0044 7.34707 12.0044 9.0039C12.0044 10.6607 10.6613 12.0039 9.00439 12.0039Z" fill="white"/>
<path d="M14.8875 4.19726C14.8875 4.79366 14.404 5.27726 13.8075 5.27726C13.2111 5.27726 12.7275 4.79366 12.7275 4.19726C12.7275 3.60079 13.2111 3.11719 13.8075 3.11719C14.404 3.11719 14.8875 3.60079 14.8875 4.19726Z" fill="white"/>
</svg>
