<svg width="23" height="22" viewBox="0 0 23 22" fill="none" xmlns="http://www.w3.org/2000/svg">
<path d="M7.71695 11.0688C8.61339 12.9201 10.1103 14.4131 11.9638 15.3048C12.1005 15.3696 12.2518 15.3976 12.4026 15.3861C12.5535 15.3747 12.6987 15.3241 12.8241 15.2395L15.5464 13.421C15.6667 13.3394 15.8057 13.2896 15.9504 13.2763C16.0951 13.2629 16.2409 13.2865 16.374 13.3447L21.4703 15.5335C21.6445 15.606 21.79 15.7337 21.8844 15.8971C21.9789 16.0604 22.017 16.2502 21.993 16.4373C21.8315 17.698 21.2161 18.8567 20.2621 19.6965C19.308 20.5363 18.0806 20.9997 16.8096 21C12.8819 21 9.11498 19.4397 6.33764 16.6624C3.5603 13.885 2 10.1181 2 6.19038C2.00029 4.91936 2.46369 3.692 3.30349 2.73795C4.1433 1.7839 5.30196 1.16854 6.56267 1.00701C6.74979 0.982975 6.93963 1.02112 7.10294 1.11557C7.26626 1.21001 7.394 1.35553 7.46649 1.5297L9.65527 6.63685C9.71219 6.7679 9.736 6.91094 9.7246 7.05336C9.71321 7.19578 9.66696 7.33322 9.58993 7.45355L7.7714 10.2195C7.69043 10.3446 7.64292 10.4883 7.63338 10.6371C7.62385 10.7858 7.65262 10.9344 7.71695 11.0688V11.0688Z" stroke="#313131" stroke-linecap="round" stroke-linejoin="round"/>
</svg>
