<svg width="24" height="24" viewBox="0 0 24 24" fill="none" xmlns="http://www.w3.org/2000/svg">
<g clip-path="url(#clip0_1226_9331)">
<path d="M16.3125 16.4343C16.3875 16.4624 16.5094 16.4999 16.65 16.4906C16.875 16.4812 17.0813 16.3874 17.2313 16.2374C17.4 16.0687 17.4844 15.8437 17.4844 15.6093C17.4656 14.1937 18.3656 12.9562 19.7063 12.5343C19.8 12.5062 19.8938 12.4593 19.9781 12.3937C20.1656 12.2531 20.2875 12.0468 20.3156 11.8312C20.3531 11.5968 20.2969 11.3624 20.1562 11.1656C19.3125 10.0312 19.3031 8.50307 20.1469 7.3687L20.25 7.23745L20.2969 7.09682C20.3719 6.87182 20.3438 6.62807 20.2406 6.44057C20.1375 6.22495 19.95 6.06557 19.725 5.99995C18.3844 5.5687 17.4844 4.34057 17.5031 2.93432C17.5031 2.82182 17.4844 2.72807 17.4563 2.63432C17.3813 2.4187 17.2219 2.24057 17.0063 2.12807C16.8 2.03432 16.5656 2.01557 16.35 2.09057C16.0219 2.20307 15.675 2.25932 15.3281 2.25932C14.2969 2.25932 13.3219 1.76245 12.7313 0.918698C12.6656 0.834323 12.5906 0.759323 12.525 0.712448C12.1313 0.431198 11.5875 0.524948 11.3063 0.918698C10.7063 1.76245 9.74063 2.25932 8.70938 2.25932C8.35313 2.25932 8.01563 2.20307 7.69688 2.09057C7.39688 1.98745 7.0125 2.06245 6.7875 2.29682C6.61875 2.46557 6.53437 2.69057 6.53437 2.91557C6.55312 4.3312 5.65313 5.5687 4.3125 5.9812C4.20938 6.00932 4.125 6.0562 4.03125 6.12182C3.64688 6.41245 3.57187 6.9562 3.85312 7.34995C4.69687 8.48432 4.69687 10.0124 3.85312 11.1562C3.79687 11.2312 3.75 11.3249 3.72188 11.4093C3.65625 11.6343 3.675 11.8593 3.77813 12.0843C3.89063 12.2906 4.07813 12.4406 4.28438 12.5062C5.63438 12.9374 6.525 14.1749 6.50625 15.5624C6.49688 15.6749 6.51563 15.7781 6.55313 15.8812C6.62813 16.0968 6.7875 16.2749 7.00313 16.3874C7.21875 16.4812 7.44375 16.4999 7.65938 16.4249C7.99688 16.3124 8.35313 16.2562 8.7 16.2562C9.74063 16.2562 10.6781 16.7437 11.2875 17.5968C11.3438 17.6718 11.4188 17.7468 11.4938 17.8031C11.6438 17.9062 11.8219 17.9624 12 17.9624C12.0469 17.9624 12.1031 17.9624 12.15 17.9531C12.3844 17.9156 12.5813 17.7843 12.7125 17.5968C13.5281 16.4624 14.9719 15.9843 16.3125 16.4343ZM11.9906 17.0343C11.2219 15.9749 9.99375 15.3468 8.69063 15.3468C8.25938 15.3468 7.81875 15.4124 7.41563 15.5531C7.41563 13.7718 6.28125 12.2062 4.60312 11.6718C5.65313 10.2281 5.65313 8.3062 4.6125 6.86245C6.3 6.30932 7.425 4.76245 7.43438 2.9812C7.8375 3.11245 8.25938 3.17807 8.69063 3.17807C9.99375 3.17807 11.2313 2.54995 12 1.49995C12.7688 2.54995 14.0063 3.17807 15.3188 3.17807C15.7594 3.17807 16.1906 3.11245 16.575 2.97182C16.575 4.73432 17.6906 6.2812 19.3781 6.85307C18.3375 8.29682 18.3375 10.2093 19.3781 11.6624C17.6906 12.2156 16.575 13.7624 16.5656 15.5437C14.8687 14.9999 13.05 15.5906 11.9906 17.0343Z" fill="white"/>
<path d="M15.7879 8.63438C14.3535 8.03438 13.2285 6.91875 12.6191 5.48438C12.516 5.23125 12.2629 5.0625 11.991 5.0625C11.7191 5.0625 11.466 5.23125 11.3629 5.475C10.7535 6.9 9.63789 8.01563 8.21289 8.625C7.95977 8.72813 7.79102 8.97188 7.79102 9.24375C7.79102 9.51562 7.95039 9.75938 8.20352 9.87188C9.58164 10.4719 10.7254 11.6344 11.3535 13.0594C11.466 13.3125 11.7098 13.4719 11.9723 13.4719C12.2441 13.4719 12.4879 13.3125 12.591 13.0594C13.191 11.6719 14.3535 10.5188 15.7879 9.88125C16.0316 9.76875 16.191 9.525 16.191 9.25313C16.2004 8.98125 16.041 8.7375 15.7879 8.63438ZM11.9816 12.2438C11.3066 10.9688 10.266 9.91875 9.02852 9.25313C10.3035 8.59687 11.3348 7.575 11.991 6.3C12.6473 7.58437 13.6879 8.61563 14.9723 9.2625C13.6879 9.94688 12.6379 10.9969 11.9816 12.2438Z" fill="white"/>
<path d="M9.24414 17.6999C9.02851 17.5593 8.74727 17.6249 8.60664 17.8312L6.15039 21.5905L4.92227 19.0687L2.36289 19.0593L4.93164 15.1218C5.07227 14.9062 5.00664 14.6249 4.80039 14.4843C4.58477 14.3437 4.30352 14.4093 4.16289 14.6155L0.666016 19.978L4.35039 19.9874L6.03789 23.4468L9.37539 18.3374C9.51602 18.1218 9.45976 17.8312 9.24414 17.6999Z" fill="white"/>
<path d="M19.8287 14.6156C19.6881 14.4 19.4068 14.3437 19.1912 14.4844C18.9756 14.625 18.9193 14.9062 19.0599 15.1219L21.6381 19.0594L19.0693 19.0687L17.8412 21.5906L15.385 17.8312C15.2443 17.6156 14.9631 17.5594 14.7474 17.7C14.5318 17.8406 14.4756 18.1219 14.6162 18.3375L17.9631 23.4469L19.6506 19.9875L23.3349 19.9781L19.8287 14.6156Z" fill="white"/>
</g>
<defs>
<clipPath id="clip0_1226_9331">
<rect width="24" height="24" fill="white"/>
</clipPath>
</defs>
</svg>
