<svg width="24" height="24" viewBox="0 0 24 24" fill="none" xmlns="http://www.w3.org/2000/svg">
<g clip-path="url(#clip0_1226_9793)">
<path d="M20.9452 11.2002C20.905 9.10197 20.1298 7.06977 18.7306 5.47077C17.0266 3.52197 14.5678 2.40417 11.9854 2.40417C9.39877 2.40417 6.94057 3.51957 5.24017 5.46417C3.82717 7.07997 3.06217 9.13677 3.03637 11.2548C1.28317 11.5548 -0.0140281 13.0194 -0.0380281 14.8062C-0.0452281 14.8314 -0.0488281 14.8578 -0.0488281 14.8842C-0.0488281 16.9332 1.60237 18.6 3.63217 18.6H6.35557C7.58917 20.418 9.67177 21.6 11.9854 21.6C15.3736 21.6 18.271 19.0674 18.7228 15.7086L19.1776 12.3288C19.4572 10.254 18.8266 8.15997 17.4484 6.58437C16.0702 5.00877 14.0794 4.10457 11.986 4.10457C9.89257 4.10457 7.90117 5.00817 6.52357 6.58437C5.14597 8.16057 4.51357 10.254 4.79317 12.3288L5.24797 15.7086C5.35837 16.5306 5.61757 17.3022 5.99197 18H4.75057C4.45897 17.3442 4.25617 16.6248 4.15297 15.8562L3.69817 12.4776C3.65977 12.1932 3.63877 11.9088 3.62977 11.625C3.65197 11.5782 3.66697 11.5278 3.66157 11.472C3.65857 11.4366 3.64597 11.4042 3.63157 11.3742C3.62917 9.35877 4.34797 7.39497 5.69077 5.85957C7.27777 4.04517 9.57157 3.00477 11.9848 3.00477C14.395 3.00477 16.6888 4.04757 18.2788 5.86617C19.6108 7.38897 20.3362 9.33237 20.3458 11.3322C20.3314 11.364 20.3212 11.4 20.3182 11.4378C20.3134 11.4906 20.3236 11.5416 20.344 11.5866C20.3362 11.8884 20.3122 12.1908 20.272 12.4932L19.8172 15.8898C19.6942 16.8054 19.453 17.6514 19.1716 18.153C19.12 18.246 19.1206 18.3594 19.1746 18.4518C19.2286 18.5436 19.327 18.6 19.4338 18.6H20.3668C22.3696 18.6 23.9992 16.929 23.9992 14.841C23.9992 13.0044 22.7068 11.49 20.9452 11.2002ZM5.84197 15.6282L5.38717 12.249C5.13157 10.3458 5.70937 8.42517 6.97417 6.97977C8.23777 5.53437 10.0642 4.70517 11.9854 4.70517C13.9066 4.70517 15.7324 5.53437 16.9966 6.97977C18.2608 8.42577 18.8386 10.3458 18.5836 12.249L18.1288 15.6288C17.7154 18.6906 15.0748 21 11.9854 21C10.0222 21 8.24257 20.0658 7.09837 18.6H8.99917C9.00997 18.6 9.01837 18.5952 9.02857 18.594C9.16597 19.2804 9.77257 19.8 10.4992 19.8H12.8992C13.7266 19.8 14.3992 19.1268 14.3992 18.3C14.3992 17.4732 13.7266 16.8 12.8992 16.8H10.4992C9.77257 16.8 9.16597 17.3196 9.02857 18.006C9.01837 18.0048 9.00997 18 8.99917 18H6.68737C6.25657 17.2914 5.95837 16.4916 5.84197 15.6282ZM9.59917 18.3C9.59917 17.8038 10.003 17.4 10.4992 17.4H12.8992C13.3954 17.4 13.7992 17.8038 13.7992 18.3C13.7992 18.7962 13.3954 19.2 12.8992 19.2H10.4992C10.003 19.2 9.59917 18.7962 9.59917 18.3ZM4.10077 18H3.63217C1.94977 18 0.577572 16.629 0.551772 14.9334C0.557772 14.9088 0.561372 14.8836 0.561372 14.8584C0.561372 13.3752 1.61137 12.1488 3.04837 11.8608C3.06157 12.093 3.07297 12.3252 3.10417 12.558L3.55897 15.9366C3.65677 16.668 3.84157 17.358 4.10077 18ZM20.3662 18H19.906C20.128 17.4498 20.3098 16.728 20.4112 15.9696L20.866 12.573C20.9008 12.318 20.9242 12.0624 20.9362 11.808C22.3618 12.087 23.3992 13.3368 23.3992 14.8752C23.3992 16.5984 22.0384 18 20.3662 18Z" fill="white"/>
</g>
<defs>
<clipPath id="clip0_1226_9793">
<rect width="24" height="24" fill="white"/>
</clipPath>
</defs>
</svg>
