<svg width="20" height="16" viewBox="0 0 20 16" fill="none" xmlns="http://www.w3.org/2000/svg">
<path d="M18.4167 1.00796C17.6586 1.54271 16.8192 1.95171 15.9308 2.21921C15.454 1.67099 14.8204 1.28243 14.1156 1.10607C13.4107 0.929713 12.6688 0.974074 11.99 1.23315C11.3112 1.49223 10.7284 1.95353 10.3203 2.55465C9.91221 3.15578 9.6986 3.86773 9.70833 4.59421V5.38588C8.31709 5.42195 6.93851 5.1134 5.69538 4.48769C4.45226 3.86198 3.38317 2.93855 2.58333 1.79963C2.58333 1.79963 -0.583334 8.92463 6.54167 12.0913C4.91125 13.198 2.969 13.7529 1 13.6746C8.125 17.633 16.8333 13.6746 16.8333 4.57046C16.8326 4.34994 16.8114 4.12997 16.77 3.91338C17.578 3.11656 18.1482 2.11053 18.4167 1.00796Z" stroke="white" stroke-width="1.2" stroke-linecap="round" stroke-linejoin="round"/>
</svg>
