<svg width="23" height="17" viewBox="0 0 23 17" fill="none" xmlns="http://www.w3.org/2000/svg">
<path d="M21.6431 3.31917C21.5292 2.86435 21.2974 2.44763 20.9709 2.1111C20.6445 1.77456 20.235 1.53014 19.7839 1.4025C18.1355 1 11.5422 1 11.5422 1C11.5422 1 4.94888 1 3.30055 1.44083C2.84941 1.56847 2.43994 1.8129 2.11351 2.14943C1.78707 2.48596 1.55522 2.90268 1.44138 3.3575C1.13971 5.03032 0.992149 6.7273 1.00055 8.42708C0.989795 10.1397 1.13737 11.8496 1.44138 13.535C1.56688 13.9757 1.80393 14.3766 2.1296 14.6989C2.45528 15.0212 2.85858 15.2541 3.30055 15.375C4.94888 15.8158 11.5422 15.8158 11.5422 15.8158C11.5422 15.8158 18.1355 15.8158 19.7839 15.375C20.235 15.2474 20.6445 15.0029 20.9709 14.6664C21.2974 14.3299 21.5292 13.9131 21.6431 13.4583C21.9424 11.7981 22.0899 10.1141 22.0839 8.42708C22.0946 6.7145 21.9471 5.00459 21.6431 3.31917Z" stroke="white" stroke-width="1.2" stroke-linecap="round" stroke-linejoin="round"/>
<path d="M9.38574 11.5605L14.8962 8.42672L9.38574 5.29297V11.5605Z" stroke="white" stroke-width="1.2" stroke-linecap="round" stroke-linejoin="round"/>
</svg>
