<svg width="16" height="16" viewBox="0 0 16 16" fill="none" xmlns="http://www.w3.org/2000/svg">
<path fill-rule="evenodd" clip-rule="evenodd" d="M1.64601 4.64592C1.69245 4.59935 1.74763 4.56241 1.80838 4.5372C1.86912 4.512 1.93424 4.49902 2.00001 4.49902C2.06578 4.49902 2.1309 4.512 2.19164 4.5372C2.25239 4.56241 2.30756 4.59935 2.35401 4.64592L8.00001 10.2929L13.646 4.64592C13.6925 4.59943 13.7477 4.56255 13.8084 4.53739C13.8692 4.51223 13.9343 4.49929 14 4.49929C14.0658 4.49929 14.1309 4.51223 14.1916 4.53739C14.2523 4.56255 14.3075 4.59943 14.354 4.64592C14.4005 4.6924 14.4374 4.74759 14.4625 4.80833C14.4877 4.86907 14.5006 4.93417 14.5006 4.99992C14.5006 5.06566 14.4877 5.13076 14.4625 5.1915C14.4374 5.25224 14.4005 5.30743 14.354 5.35392L8.35401 11.3539C8.30756 11.4005 8.25239 11.4374 8.19164 11.4626C8.1309 11.4878 8.06578 11.5008 8.00001 11.5008C7.93424 11.5008 7.86912 11.4878 7.80838 11.4626C7.74763 11.4374 7.69245 11.4005 7.64601 11.3539L1.64601 5.35392C1.59945 5.30747 1.5625 5.2523 1.5373 5.19155C1.51209 5.13081 1.49911 5.06568 1.49911 4.99992C1.49911 4.93415 1.51209 4.86903 1.5373 4.80828C1.5625 4.74754 1.59945 4.69236 1.64601 4.64592Z" fill="#027743"/>
</svg>
