<svg width="16" height="16" viewBox="0 0 16 16" fill="none" xmlns="http://www.w3.org/2000/svg">
<path fill-rule="evenodd" clip-rule="evenodd" d="M1.64601 11.3541C1.69245 11.4006 1.74763 11.4376 1.80838 11.4628C1.86912 11.488 1.93424 11.501 2.00001 11.501C2.06578 11.501 2.1309 11.488 2.19164 11.4628C2.25239 11.4376 2.30756 11.4006 2.35401 11.3541L8.00001 5.70708L13.646 11.3541C13.6925 11.4006 13.7477 11.4374 13.8084 11.4626C13.8692 11.4878 13.9343 11.5007 14 11.5007C14.0658 11.5007 14.1309 11.4878 14.1916 11.4626C14.2523 11.4374 14.3075 11.4006 14.354 11.3541C14.4005 11.3076 14.4374 11.2524 14.4625 11.1917C14.4877 11.1309 14.5006 11.0658 14.5006 11.0001C14.5006 10.9343 14.4877 10.8692 14.4625 10.8085C14.4374 10.7478 14.4005 10.6926 14.354 10.6461L8.35401 4.64608C8.30756 4.59952 8.25239 4.56258 8.19164 4.53737C8.1309 4.51216 8.06578 4.49919 8.00001 4.49919C7.93424 4.49919 7.86912 4.51216 7.80838 4.53737C7.74763 4.56258 7.69245 4.59952 7.64601 4.64608L1.64601 10.6461C1.59945 10.6925 1.5625 10.7477 1.5373 10.8084C1.51209 10.8692 1.49911 10.9343 1.49911 11.0001C1.49911 11.0659 1.51209 11.131 1.5373 11.1917C1.5625 11.2525 1.59945 11.3076 1.64601 11.3541Z" fill="white"/>
</svg>
