<svg width="23" height="23" viewBox="0 0 23 23" fill="none" xmlns="http://www.w3.org/2000/svg">
<path d="M7.71695 11.5688C8.61339 13.4201 10.1103 14.9131 11.9638 15.8048C12.1005 15.8696 12.2518 15.8976 12.4026 15.8861C12.5535 15.8747 12.6987 15.8241 12.8241 15.7395L15.5464 13.921C15.6667 13.8394 15.8057 13.7896 15.9504 13.7763C16.0951 13.7629 16.2409 13.7865 16.374 13.8447L21.4703 16.0335C21.6445 16.106 21.79 16.2337 21.8844 16.3971C21.9789 16.5604 22.017 16.7502 21.993 16.9373C21.8315 18.198 21.2161 19.3567 20.2621 20.1965C19.308 21.0363 18.0806 21.4997 16.8096 21.5C12.8819 21.5 9.11498 19.9397 6.33764 17.1624C3.5603 14.385 2 10.6181 2 6.69038C2.00029 5.41936 2.46369 4.192 3.30349 3.23795C4.1433 2.2839 5.30196 1.66854 6.56267 1.50701C6.74979 1.48298 6.93963 1.52112 7.10294 1.61557C7.26626 1.71001 7.394 1.85553 7.46649 2.0297L9.65527 7.13685C9.71219 7.2679 9.736 7.41094 9.7246 7.55336C9.71321 7.69578 9.66696 7.83322 9.58993 7.95355L7.7714 10.7195C7.69043 10.8446 7.64292 10.9883 7.63338 11.1371C7.62385 11.2858 7.65262 11.4344 7.71695 11.5688V11.5688Z" stroke="#313131" stroke-linecap="round" stroke-linejoin="round"/>
</svg>
