<svg width="14" height="14" viewBox="0 0 14 14" fill="none" xmlns="http://www.w3.org/2000/svg">
<path d="M11.8 3.6665H2.2C1.53726 3.6665 1 4.26346 1 4.99984V11.6665C1 12.4029 1.53726 12.9998 2.2 12.9998H11.8C12.4627 12.9998 13 12.4029 13 11.6665V4.99984C13 4.26346 12.4627 3.6665 11.8 3.6665Z" stroke="black" stroke-width="1.5" stroke-linecap="round" stroke-linejoin="round"/>
<path d="M9.39998 13V2.33333C9.39998 1.97971 9.27355 1.64057 9.0485 1.39052C8.82346 1.14048 8.51824 1 8.19998 1H5.79998C5.48172 1 5.17649 1.14048 4.95145 1.39052C4.7264 1.64057 4.59998 1.97971 4.59998 2.33333V13" stroke="black" stroke-width="1.5" stroke-linecap="round" stroke-linejoin="round"/>
</svg>
