<svg width="720" height="708" viewBox="0 0 720 708" fill="none" xmlns="http://www.w3.org/2000/svg">
<path opacity="0.4" d="M556.899 205.874C556.899 205.874 510.473 144.805 433.392 140.505C356.308 136.205 313.388 187.812 281.855 226.517C250.321 265.223 154.844 242.859 97.0305 302.209C39.2174 361.557 67.2484 395.961 92.65 430.367C118.052 464.772 142.579 469.932 142.579 498.316C142.579 526.701 156.595 564.545 211.778 573.147C266.962 581.748 323.898 529.28 363.315 549.063C402.732 568.847 468.866 584.329 509.379 573.147C549.89 561.965 537.627 520.679 581.425 506.916C625.223 493.154 667.268 450.148 661.136 403.701C655.005 357.254 619.967 348.653 605.076 303.927C590.185 259.202 569.162 224.796 556.899 205.874Z" fill="#CCE4DA"/>
<path d="M609.664 582.824C609.664 585.318 529.073 587.34 429.658 587.34C330.243 587.34 249.652 585.318 249.652 582.824C249.652 580.33 330.243 578.308 429.658 578.308C529.073 578.308 609.664 580.33 609.664 582.824Z" fill="#263238"/>
<path d="M467.259 247.105H298.115C292.854 247.105 288.59 242.917 288.59 237.75V172.828C288.59 167.661 292.855 163.473 298.115 163.473H467.259C472.521 163.473 476.786 167.661 476.786 172.828V237.75C476.786 242.917 472.521 247.105 467.259 247.105Z" fill="#027743"/>
<path opacity="0.1" d="M467.259 247.105H298.115C292.854 247.105 288.59 242.917 288.59 237.75V172.828C288.59 167.661 292.855 163.473 298.115 163.473H467.259C472.521 163.473 476.786 167.661 476.786 172.828V237.75C476.786 242.917 472.521 247.105 467.259 247.105Z" fill="black"/>
<path d="M288.59 232.398V262.598L305.749 243.207" fill="#026B3C"/>
<path opacity="0.1" d="M288.59 232.398V262.598L305.749 243.207" fill="black"/>
<path d="M433.399 209.354H311.916C310.043 209.354 308.523 207.862 308.523 206.021C308.523 204.182 310.043 202.69 311.916 202.69H433.399C435.272 202.69 436.791 204.182 436.791 206.021C436.791 207.861 435.272 209.354 433.399 209.354Z" fill="white"/>
<path d="M433.399 224.68H311.916C310.043 224.68 308.523 223.189 308.523 221.348C308.523 219.508 310.043 218.015 311.916 218.015H433.399C435.272 218.015 436.791 219.507 436.791 221.348C436.791 223.189 435.272 224.68 433.399 224.68Z" fill="white"/>
<path d="M318.704 194.025C325.45 194.025 330.919 188.655 330.919 182.03C330.919 175.405 325.45 170.035 318.704 170.035C311.957 170.035 306.488 175.405 306.488 182.03C306.488 188.655 311.957 194.025 318.704 194.025Z" fill="white"/>
<path d="M467.259 360.287H298.115C292.854 360.287 288.59 356.099 288.59 350.932V286.01C288.59 280.843 292.855 276.655 298.115 276.655H467.259C472.521 276.655 476.786 280.843 476.786 286.01V350.932C476.786 356.099 472.521 360.287 467.259 360.287Z" fill="#026B3C"/>
<path opacity="0.1" d="M467.259 360.287H298.115C292.854 360.287 288.59 356.099 288.59 350.932V286.01C288.59 280.843 292.855 276.655 298.115 276.655H467.259C472.521 276.655 476.786 280.843 476.786 286.01V350.932C476.786 356.099 472.521 360.287 467.259 360.287Z" fill="black"/>
<path d="M288.59 345.579V375.78L305.749 356.387" fill="#C6FF00"/>
<path opacity="0.1" d="M288.59 345.579V375.78L305.749 356.387" fill="black"/>
<path d="M433.399 322.535H311.916C310.043 322.535 308.523 321.043 308.523 319.202C308.523 317.362 310.043 315.871 311.916 315.871H433.399C435.272 315.871 436.791 317.362 436.791 319.202C436.791 321.043 435.272 322.535 433.399 322.535Z" fill="white"/>
<path d="M433.399 337.863H311.916C310.043 337.863 308.523 336.371 308.523 334.531C308.523 332.692 310.043 331.198 311.916 331.198H433.399C435.272 331.198 436.791 332.69 436.791 334.531C436.791 336.371 435.272 337.863 433.399 337.863Z" fill="white"/>
<path d="M318.704 307.207C325.45 307.207 330.919 301.837 330.919 295.212C330.919 288.587 325.45 283.217 318.704 283.217C311.957 283.217 306.488 288.587 306.488 295.212C306.488 301.837 311.957 307.207 318.704 307.207Z" fill="white"/>
<path d="M157.893 442.38C157.765 442.43 157.188 433.52 157.218 432.953C157.558 426.399 162.136 413.932 169.367 412.036C174.577 410.67 179.377 414.393 180.2 419.408C181.041 424.53 177.646 429.982 174.194 433.523C170.141 437.679 157.902 442.376 157.893 442.38Z" fill="#263238"/>
<path d="M148.449 408.228C148.315 408.258 149.118 399.365 149.235 398.809C150.581 392.381 157.031 380.738 164.471 379.941C169.831 379.367 174.003 383.76 174.043 388.839C174.083 394.027 169.887 398.911 165.929 401.897C161.28 405.401 148.459 408.225 148.449 408.228Z" fill="#263238"/>
<path d="M146.06 367.913C145.926 367.943 146.73 359.05 146.846 358.495C148.193 352.067 154.642 340.424 162.081 339.626C167.441 339.051 171.613 343.445 171.653 348.525C171.695 353.713 167.497 358.597 163.539 361.583C158.892 365.088 146.07 367.911 146.06 367.913Z" fill="#263238"/>
<path d="M141.929 329.995C141.795 330.025 142.599 321.132 142.715 320.577C144.062 314.149 150.511 302.506 157.952 301.708C163.312 301.133 167.483 305.528 167.522 310.607C167.564 315.795 163.366 320.679 159.408 323.665C154.759 327.17 141.938 329.993 141.929 329.995Z" fill="#263238"/>
<path d="M129.62 299.525C129.499 299.589 127.882 290.803 127.844 290.236C127.414 283.688 130.504 270.785 137.465 268.088C142.48 266.143 147.684 269.299 149.088 274.188C150.523 279.18 147.788 284.979 144.774 288.886C141.236 293.472 129.628 299.521 129.62 299.525Z" fill="#263238"/>
<path d="M154.127 442.479C154.262 442.461 150.329 434.412 150.021 433.931C146.462 428.377 136.258 419.701 129.007 421.521C123.783 422.832 121.45 428.383 123.229 433.154C125.046 438.025 130.722 441.15 135.497 442.581C141.103 444.259 154.118 442.48 154.127 442.479Z" fill="#263238"/>
<path d="M146.526 403.654C146.658 403.615 141.528 396.244 141.15 395.816C136.773 390.855 125.35 383.797 118.462 386.674C113.5 388.747 112.05 394.581 114.546 399.033C117.093 403.577 123.187 405.823 128.126 406.525C133.926 407.35 146.518 403.656 146.526 403.654Z" fill="#263238"/>
<path d="M144.349 365.624C144.48 365.586 139.351 358.215 138.972 357.786C134.596 352.826 123.172 345.767 116.285 348.645C111.322 350.718 109.872 356.552 112.368 361.003C114.915 365.548 121.009 367.793 125.948 368.497C131.75 369.32 144.34 365.625 144.349 365.624Z" fill="#263238"/>
<path d="M140.622 330.719C140.753 330.681 135.624 323.31 135.245 322.882C130.869 317.921 119.446 310.863 112.558 313.74C107.596 315.813 106.146 321.647 108.641 326.098C111.189 330.643 117.283 332.889 122.222 333.591C128.022 334.417 140.614 330.722 140.622 330.719Z" fill="#263238"/>
<path d="M129.689 300.676C129.816 300.624 123.893 293.851 123.468 293.465C118.564 289.006 106.42 283.223 99.8971 286.825C95.1969 289.419 94.4078 295.377 97.3857 299.529C100.427 303.771 106.734 305.345 111.722 305.512C117.58 305.71 129.681 300.68 129.689 300.676Z" fill="#263238"/>
<path d="M113.977 275.836C114.114 275.846 112.036 267.156 111.84 266.621C109.579 260.446 101.515 249.817 94.0358 250.062C88.6473 250.239 85.1524 255.168 85.8451 260.202C86.5536 265.343 91.4121 269.594 95.7609 271.999C100.867 274.824 113.967 275.835 113.977 275.836Z" fill="#263238"/>
<path d="M170.491 488.195C170.491 488.195 168.944 484.738 166.518 478.665C164.09 472.582 160.746 463.85 157.224 453.209C155.45 447.892 153.644 442.095 151.899 435.915C150.997 432.81 150.192 429.687 149.311 426.328C148.945 424.692 148.575 423.04 148.201 421.371C147.793 419.724 147.577 417.934 147.253 416.199C146.107 409.206 145.424 402.001 145.057 394.661C144.687 387.328 144.545 379.893 144.369 372.478C144.198 365.061 143.984 357.66 143.383 350.412C142.792 343.165 141.833 336.069 140.281 329.329C138.728 322.597 136.364 316.267 133.854 310.447C131.343 304.592 128.46 299.271 125.678 294.438C122.904 289.593 120.06 285.326 117.511 281.566C114.93 277.826 112.562 274.642 110.568 272.054C106.566 266.886 104.055 264.104 104.055 264.104C104.055 264.104 106.627 266.831 110.746 271.917C112.8 274.465 115.241 277.601 117.91 281.294C120.548 285.008 123.495 289.226 126.388 294.03C129.289 298.824 132.306 304.111 134.97 309.962C137.648 315.824 140.163 322.124 141.898 328.945C143.626 335.75 144.756 342.921 145.514 350.223C146.283 357.529 146.661 364.969 146.997 372.389C147.337 379.809 147.643 387.216 148.171 394.47C148.692 401.715 149.534 408.836 150.788 415.558C151.141 417.238 151.363 418.88 151.814 420.548C152.224 422.208 152.632 423.854 153.033 425.481C153.926 428.589 154.828 431.802 155.777 434.812C157.639 440.89 159.552 446.591 161.426 451.816C165.145 462.278 168.647 470.852 171.179 476.81C173.719 482.778 175.287 486.086 175.287 486.086C175.901 487.378 175.33 488.912 174.014 489.514C172.698 490.117 171.136 489.557 170.522 488.264C170.516 488.252 170.509 488.238 170.503 488.225L170.491 488.195Z" fill="#263238"/>
<path d="M204.399 433.386C204.262 433.397 206.288 424.694 206.48 424.159C208.703 417.97 216.703 407.296 224.183 407.497C229.573 407.642 233.098 412.55 232.436 417.588C231.759 422.734 226.925 427.013 222.592 429.443C217.503 432.297 204.409 433.386 204.399 433.386Z" fill="#263238"/>
<path d="M205.231 398.006C205.094 397.997 208.439 389.696 208.711 389.195C211.863 383.409 221.416 374.046 228.78 375.358C234.085 376.302 236.813 381.68 235.381 386.561C233.918 391.547 228.481 395.058 223.821 396.815C218.35 398.878 205.239 398.007 205.231 398.006Z" fill="#263238"/>
<path d="M214.612 358.688C214.475 358.68 217.82 350.378 218.092 349.877C221.244 344.091 230.797 334.728 238.161 336.04C243.466 336.985 246.194 342.362 244.762 347.243C243.299 352.229 237.862 355.74 233.202 357.497C227.731 359.561 214.622 358.689 214.612 358.688Z" fill="#263238"/>
<path d="M221.627 321.182C221.49 321.173 224.835 312.872 225.108 312.371C228.26 306.585 237.813 297.222 245.177 298.534C250.482 299.478 253.209 304.856 251.778 309.737C250.315 314.723 244.877 318.234 240.218 319.991C234.747 322.054 221.637 321.182 221.627 321.182Z" fill="#263238"/>
<path d="M218.647 288.532C218.513 288.559 219.505 279.685 219.635 279.132C221.118 272.734 227.816 261.227 235.271 260.582C240.642 260.118 244.718 264.596 244.649 269.675C244.579 274.863 240.279 279.66 236.257 282.564C231.535 285.972 218.656 288.53 218.647 288.532Z" fill="#263238"/>
<path d="M200.761 432.431C200.896 432.451 199.456 423.636 199.299 423.09C197.494 416.772 190.223 405.606 182.745 405.325C177.357 405.122 173.513 409.794 173.837 414.865C174.17 420.043 178.707 424.623 182.871 427.328C187.758 430.502 200.751 432.43 200.761 432.431Z" fill="#263238"/>
<path d="M204.712 393.084C204.849 393.084 202.065 384.586 201.826 384.068C199.067 378.091 190.158 368.135 182.722 368.971C177.365 369.573 174.285 374.763 175.389 379.726C176.517 384.795 181.709 388.647 186.241 390.701C191.562 393.112 204.703 393.084 204.712 393.084Z" fill="#263238"/>
<path d="M213.634 356.016C213.771 356.016 210.987 347.518 210.748 347C207.989 341.023 199.08 331.067 191.644 331.903C186.287 332.505 183.207 337.694 184.311 342.658C185.439 347.727 190.63 351.579 195.163 353.633C200.484 356.044 213.624 356.016 213.634 356.016Z" fill="#263238"/>
<path d="M220.165 321.511C220.302 321.511 217.518 313.013 217.279 312.496C214.52 306.519 205.611 296.563 198.175 297.398C192.818 298.001 189.738 303.19 190.842 308.153C191.97 313.222 197.161 317.074 201.694 319.129C207.015 321.54 220.156 321.511 220.165 321.511Z" fill="#263238"/>
<path d="M218.382 289.655C218.517 289.64 214.801 281.494 214.505 281.006C211.094 275.363 201.125 266.428 193.828 268.061C188.571 269.237 186.091 274.728 187.743 279.541C189.431 284.457 195.022 287.727 199.757 289.279C205.314 291.102 218.372 289.657 218.382 289.655Z" fill="#263238"/>
<path d="M210.507 261.454C210.635 261.503 211.159 252.59 211.126 252.023C210.747 245.471 206.092 233.03 198.85 231.178C193.633 229.843 188.855 233.593 188.061 238.613C187.252 243.74 190.679 249.171 194.152 252.692C198.231 256.825 210.498 261.452 210.507 261.454Z" fill="#263238"/>
<path d="M203.213 480.828C203.213 480.828 202.73 477.081 202.163 470.582C201.595 464.072 200.917 454.768 200.622 443.582C200.461 437.99 200.407 431.928 200.523 425.515C200.557 422.287 200.69 419.067 200.818 415.602C200.94 413.932 201.064 412.243 201.189 410.538C201.276 408.846 201.587 407.068 201.778 405.315C202.704 398.292 204.136 391.192 205.907 384.053C207.675 376.919 209.691 369.751 211.67 362.592C213.653 355.435 215.591 348.278 217.111 341.162C218.644 334.049 219.778 326.978 220.241 320.083C220.701 313.196 220.267 306.466 219.547 300.185C218.834 293.87 217.611 287.964 216.341 282.554C215.085 277.136 213.594 272.25 212.237 267.933C210.845 263.626 209.495 259.913 208.333 256.876C205.992 250.804 204.391 247.438 204.391 247.438C204.391 247.438 206.067 250.769 208.543 256.795C209.775 259.811 211.207 263.499 212.698 267.785C214.152 272.081 215.756 276.948 217.137 282.362C218.533 287.768 219.894 293.68 220.753 300.033C221.624 306.4 222.211 313.142 221.899 320.165C221.587 327.173 220.593 334.362 219.207 341.575C217.829 348.793 216.037 356.033 214.211 363.24C212.39 370.448 210.538 377.636 208.944 384.738C207.347 391.831 206.093 398.892 205.35 405.687C205.203 407.396 204.939 409.032 204.889 410.757C204.801 412.464 204.716 414.155 204.63 415.828C204.586 419.058 204.52 422.389 204.559 425.539C204.585 431.885 204.771 437.885 205.053 443.419C205.59 454.488 206.466 463.688 207.168 470.106C207.875 476.537 208.423 480.145 208.423 480.145C208.636 481.555 207.645 482.867 206.211 483.078C204.775 483.287 203.439 482.314 203.224 480.904C203.221 480.89 203.22 480.876 203.218 480.861L203.213 480.828Z" fill="#263238"/>
<path d="M219.916 574.33H158.95L141.803 476.275H237.062L219.916 574.33Z" fill="#263238"/>
<path d="M327.314 583.599C400.538 583.599 459.898 525.311 459.898 453.409C459.898 381.507 400.538 323.219 327.314 323.219C254.09 323.219 194.73 381.507 194.73 453.409C194.73 525.311 254.09 583.599 327.314 583.599Z" fill="#027743" stroke="#263238" stroke-width="0.9124" stroke-miterlimit="10" stroke-linecap="round" stroke-linejoin="round"/>
<path d="M292.193 539.033C280.529 534.707 270.438 528.61 261.923 520.743C253.405 512.875 246.735 502.987 241.91 491.08C237.084 479.175 234.674 466.012 234.674 451.592C234.674 439.563 236.707 428.317 240.778 417.853C244.847 407.389 250.344 398.408 257.266 390.911C264.19 383.414 272.182 376.943 281.243 371.508C290.305 366.069 299.891 362.032 310.003 359.395C320.113 356.758 330.287 355.439 340.525 355.439C349.335 355.439 357.788 356.429 365.885 358.406C373.982 360.384 381.575 363.473 388.667 367.674C395.757 371.877 401.946 377.027 407.232 383.124C412.518 389.222 416.671 396.616 419.692 405.308C422.713 414.001 424.224 423.537 424.224 433.919C424.224 443.641 422.418 453.015 418.811 462.036C415.202 471.059 410.586 478.68 404.967 484.902C399.344 491.124 393.113 496.085 386.276 499.794C379.437 503.502 372.787 505.355 366.326 505.355C361.375 505.355 356.907 503.915 352.922 501.03C348.936 498.147 346.818 494.068 346.566 488.795C338.342 500.165 327.224 505.849 313.213 505.849C301.801 505.849 292.697 502.017 285.9 494.356C279.105 486.694 275.707 477.259 275.707 466.055C275.707 457.733 277.196 449.411 280.175 441.089C283.151 432.768 287.202 425.23 292.32 418.472C297.438 411.718 303.877 406.219 311.64 401.974C319.401 397.732 327.645 395.609 336.372 395.609C342.665 395.609 348.432 396.991 353.678 399.749C358.921 402.511 362.929 406.527 365.698 411.798L366.831 408.215C368.34 403.603 371.614 401.294 376.649 401.294C378.998 401.294 381.01 401.954 382.69 403.272C384.368 404.591 385.207 406.443 385.207 408.833C385.207 409.823 385.037 410.811 384.703 411.8L366.831 470.134C364.818 476.808 363.81 481.381 363.81 483.853C363.81 488.055 365.99 490.156 370.355 490.156C376.059 490.156 381.66 487.583 387.157 482.433C392.65 477.285 397.12 470.444 400.56 461.917C404.001 453.388 405.723 444.552 405.723 435.408C405.723 426.839 404.546 418.969 402.198 411.801C399.848 404.633 396.659 398.558 392.633 393.572C388.604 388.587 383.822 384.385 378.284 380.966C372.745 377.547 366.831 375.034 360.538 373.426C354.244 371.819 347.656 371.016 340.777 371.016C332.385 371.016 324.058 372.172 315.793 374.477C307.528 376.785 299.661 380.266 292.195 384.919C284.725 389.576 278.117 395.096 272.372 401.482C266.623 407.867 262.051 415.509 258.653 424.407C255.254 433.307 253.555 442.823 253.555 452.957C253.555 465.484 255.652 476.749 259.848 486.76C264.044 496.771 269.77 504.887 277.029 511.108C284.286 517.329 292.592 522.089 301.949 525.382C311.305 528.679 321.311 530.327 331.969 530.327C343.045 530.327 353.785 528.719 364.19 525.506C365.113 525.178 366.203 525.013 367.462 525.013C369.811 525.013 371.697 525.776 373.126 527.301C374.553 528.826 375.265 530.574 375.265 532.552C375.265 536.179 373.545 538.484 370.104 539.474C356.26 543.509 342.875 545.529 329.956 545.529C316.441 545.522 303.854 543.358 292.193 539.033ZM337.693 482.922C343.356 478.762 347.195 473.591 349.21 467.412L360.789 427.615L360.033 426.009C359.53 425.021 358.649 423.806 357.391 422.362C356.132 420.923 354.642 419.479 352.922 418.037C351.202 416.596 348.895 415.36 346 414.329C343.106 413.301 340.021 412.785 336.748 412.785C333.055 412.785 329.468 413.526 325.987 415.009C322.504 416.491 319.379 418.491 316.61 421.003C313.841 423.519 311.302 426.442 308.995 429.779C306.687 433.116 304.757 436.638 303.205 440.345C301.651 444.053 300.456 447.866 299.618 451.779C298.778 455.693 298.359 459.463 298.359 463.088C298.359 465.725 298.505 468.156 298.8 470.38C299.094 472.604 299.575 474.706 300.247 476.684C300.917 478.662 301.776 480.414 302.828 481.935C303.876 483.463 305.134 484.759 306.603 485.83C308.071 486.901 309.813 487.726 311.828 488.301C313.841 488.878 316.107 489.167 318.624 489.167C325.672 489.164 332.028 487.084 337.693 482.922Z" fill="white"/>
<path d="M507.617 343.923C507.617 343.923 503.343 351.811 502.663 352.925C501.983 354.038 499.715 360.05 500.395 361.385C501.075 362.721 501.756 363.612 503.115 363.834C504.476 364.057 505.609 366.505 507.877 366.95C510.145 367.396 512.186 367.396 512.186 367.396C512.186 367.396 513.319 368.287 514.68 367.841C516.041 367.396 517.174 366.728 518.081 362.943C518.988 359.158 518.535 357.154 518.535 357.154L518.129 349.513L507.617 343.923Z" fill="white" stroke="#263238" stroke-width="0.9124" stroke-miterlimit="10" stroke-linecap="round" stroke-linejoin="round"/>
<path d="M532.58 556.375C532.58 556.375 526.432 566.214 526.432 568.589C526.432 570.965 534.9 575.321 538.531 576.905C542.161 578.489 548.612 579.677 553.855 580.468C559.098 581.26 569.986 583.24 566.76 579.281C563.535 575.32 544.177 564.629 543.37 563.441C542.564 562.253 540.027 560.245 540.027 560.245L532.58 556.375Z" fill="white" stroke="#263238" stroke-width="0.9124" stroke-miterlimit="10" stroke-linecap="round" stroke-linejoin="round"/>
<path d="M542.215 571.857L544.372 575.034C546.712 578.482 549.845 581.354 553.558 583.32C559.313 586.37 568.195 589.866 575.938 587.769C588.639 584.329 556.668 565.405 556.668 565.405C556.668 565.405 545.281 573.147 542.215 571.857Z" fill="white" stroke="#263238" stroke-width="0.9124" stroke-miterlimit="10" stroke-linecap="round" stroke-linejoin="round"/>
<path d="M545.881 573.362C545.881 573.362 550.356 581.052 560.799 583.982C571.242 586.912 574.226 586.179 576.464 583.25" stroke="#263238" stroke-width="0.6843" stroke-miterlimit="10" stroke-linecap="round" stroke-linejoin="round"/>
<path d="M527.232 566.77C527.232 566.77 538.764 574.876 544.373 575.034" stroke="#263238" stroke-width="0.6843" stroke-miterlimit="10" stroke-linecap="round" stroke-linejoin="round"/>
<path d="M502.216 346.638C502.216 346.638 512.434 363.277 514.624 367.148C516.814 371.018 544.406 401.984 555.356 428.647C566.306 455.311 576.816 479.394 576.379 487.136C575.941 494.878 540.027 560.247 540.027 560.247L532.581 556.377C532.581 556.377 543.969 494.878 542.654 488.427C541.341 481.976 501.046 417.897 501.046 417.897C501.046 417.897 482.214 404.995 474.33 389.943" fill="#263238"/>
<path d="M503.675 388.22C503.675 388.22 497.981 400.261 497.981 401.982C497.981 403.703 529.954 496.166 539.151 517.239C548.348 538.312 554.48 558.525 554.48 558.525C554.48 558.525 557.983 562.826 555.355 567.126C552.727 571.426 542.217 574.436 540.027 570.566C537.836 566.696 516.376 546.483 507.179 526.27C497.981 506.057 484.843 471.653 477.397 458.75C469.95 445.849 460.753 429.936 451.118 407.573C441.483 385.211 431.553 360.983 431.553 360.983C431.553 360.983 449.947 363.134 470.094 356.683C490.241 350.233 498.855 337.894 498.855 337.894C498.855 337.894 503.98 350.76 505.305 353.251" fill="#263238"/>
<path d="M506.673 424.052L496.592 398.313L507.883 388.808" stroke="white" stroke-width="0.6843" stroke-miterlimit="10" stroke-linecap="round" stroke-linejoin="round"/>
<path d="M517.561 397.52L496.591 398.311C496.591 398.311 496.591 390.392 492.96 385.243C489.332 380.095 488.524 379.303 488.121 377.719C487.717 376.136 488.121 373.363 488.121 373.363" stroke="white" stroke-width="0.6843" stroke-miterlimit="10" stroke-linecap="round" stroke-linejoin="round"/>
<path d="M544.178 483.847C544.178 483.847 557.486 490.579 566.761 489.787" stroke="white" stroke-width="0.6843" stroke-miterlimit="10" stroke-linecap="round" stroke-linejoin="round"/>
<path d="M546.598 487.806C546.598 487.806 555.873 495.33 563.938 497.31" stroke="white" stroke-width="0.6843" stroke-miterlimit="10" stroke-linecap="round" stroke-linejoin="round"/>
<path d="M493.365 369.009C492.962 370.197 494.978 375.741 496.187 378.512C497.397 381.284 501.43 383.265 501.43 385.245C501.43 387.224 496.187 390.789 496.187 390.789" stroke="white" stroke-width="0.6843" stroke-miterlimit="10" stroke-linecap="round" stroke-linejoin="round"/>
<path d="M458.683 379.304C458.683 379.304 456.264 387.224 452.231 390.392C448.197 393.559 448.197 393.559 448.197 393.559" stroke="white" stroke-width="0.6843" stroke-miterlimit="10" stroke-linecap="round" stroke-linejoin="round"/>
<path d="M442.553 377.721C442.553 377.721 449.409 399.896 459.49 416.924C469.571 433.951 492.558 470.779 493.365 477.907C494.171 485.035 493.365 492.163 499.011 495.726C504.657 499.291 504.254 500.874 505.06 505.626C505.867 510.378 508.286 515.525 508.286 515.525C508.286 515.525 524.417 542.452 530.063 552.353C535.709 562.252 543.936 571.994 543.936 571.994" stroke="white" stroke-width="0.6843" stroke-miterlimit="10" stroke-linecap="round" stroke-linejoin="round"/>
<path d="M431.553 360.983C431.553 360.983 432.47 370.989 436.502 374.156C440.534 377.323 452.633 380.096 469.167 376.928C485.701 373.76 503.849 359.9 505.462 355.148C507.075 350.395 498.857 337.901 498.857 337.901C498.857 337.901 489.331 351.187 462.716 355.544C436.099 359.902 431.553 360.983 431.553 360.983Z" fill="white" stroke="#263238" stroke-width="0.9124" stroke-miterlimit="10" stroke-linecap="round" stroke-linejoin="round"/>
<path d="M537.837 263.932C531.268 259.631 480.026 220.495 475.207 218.776C470.389 217.055 460.754 218.776 460.754 218.776C460.754 218.776 431.067 222.331 424.841 224.797C424.259 225.027 410.873 232.578 410.387 232.968C405.569 236.838 384.492 246.373 378.798 258.414C372.355 272.038 428.924 354.103 431.552 360.983C434.18 367.864 447.997 369.541 460.699 367.82C473.4 366.099 484.547 363.564 493.745 353.242C495.318 351.475 496.8 348.811 497.913 346.526C499.224 343.836 499.566 340.801 498.858 337.901C495.572 324.474 487.191 285.737 481.67 260.108C490.888 265.945 510.045 277.807 521.195 281.993C536.086 287.584 547.474 283.712 547.474 278.983C547.472 274.254 544.407 268.233 537.837 263.932Z" fill="white"/>
<mask id="mask0_1226_9997" style="mask-type:luminance" maskUnits="userSpaceOnUse" x="378" y="218" width="170" height="151">
<path d="M537.837 263.932C531.268 259.631 480.026 220.495 475.207 218.776C470.389 217.055 460.754 218.776 460.754 218.776C460.754 218.776 431.067 222.331 424.841 224.797C424.259 225.027 410.873 232.578 410.387 232.968C405.569 236.838 384.492 246.373 378.798 258.414C372.355 272.038 428.924 354.103 431.552 360.983C434.18 367.864 447.997 369.541 460.699 367.82C473.4 366.099 484.547 363.564 493.745 353.242C495.318 351.475 496.8 348.811 497.913 346.526C499.224 343.836 499.566 340.801 498.858 337.901C495.572 324.474 487.191 285.737 481.67 260.108C490.888 265.945 510.045 277.807 521.195 281.993C536.086 287.584 547.474 283.712 547.474 278.983C547.472 274.254 544.407 268.233 537.837 263.932Z" fill="white"/>
</mask>
<g mask="url(#mask0_1226_9997)">
<path opacity="0.5" d="M481.074 249.933C481.074 249.933 488.081 252.514 493.337 252.514C498.593 252.514 495.527 254.665 493.337 255.524C491.147 256.384 507.353 254.235 506.914 256.815C506.476 259.396 495.088 264.557 495.088 264.557C495.088 264.557 504.723 270.578 520.052 272.299C535.381 274.019 525.746 283.051 525.746 283.051C525.746 283.051 501.097 274.162 481.669 260.114L481.074 249.933Z" fill="#C6FF00"/>
</g>
<mask id="mask1_1226_9997" style="mask-type:luminance" maskUnits="userSpaceOnUse" x="378" y="218" width="170" height="151">
<path d="M537.837 263.932C531.268 259.631 480.026 220.495 475.207 218.776C470.389 217.055 460.754 218.776 460.754 218.776C460.754 218.776 431.067 222.331 424.841 224.797C424.259 225.027 410.873 232.578 410.387 232.968C405.569 236.838 384.492 246.373 378.798 258.414C372.355 272.038 428.924 354.103 431.552 360.983C434.18 367.864 447.997 369.541 460.699 367.82C473.4 366.099 484.547 363.564 493.745 353.242C495.318 351.475 496.8 348.811 497.913 346.526C499.224 343.836 499.566 340.801 498.858 337.901C495.572 324.474 487.191 285.737 481.67 260.108C490.888 265.945 510.045 277.807 521.195 281.993C536.086 287.584 547.474 283.712 547.474 278.983C547.472 274.254 544.407 268.233 537.837 263.932Z" fill="white"/>
</mask>
<g mask="url(#mask1_1226_9997)">
<g opacity="0.5">
<path d="M403.552 279.178C403.552 279.178 400.049 284.769 401.801 285.199C403.552 285.628 421.509 278.318 415.378 284.339C409.246 290.36 401.801 290.36 404.867 292.08C407.933 293.801 415.817 293.801 413.189 295.521C410.561 297.242 415.817 304.982 428.955 320.464C442.094 335.946 447.788 346.696 462.241 354.008C476.694 361.32 486.329 361.32 477.57 363.469C468.81 365.62 459.613 366.909 459.175 370.781C459.175 370.781 459.613 373.791 454.357 375.942C449.101 378.093 446.035 377.663 442.094 375.942C438.153 374.221 436.838 374.221 435.962 372.072C435.087 369.921 431.552 360.985 431.552 360.985L425.278 347.795L423.262 344.977L421.509 343.687L390.852 292.08L403.552 279.178Z" fill="#C6FF00"/>
</g>
</g>
<path d="M537.837 263.932C531.268 259.631 480.026 220.495 475.207 218.776C470.389 217.055 460.754 218.776 460.754 218.776C460.754 218.776 431.067 222.331 424.841 224.797C424.259 225.027 410.873 232.578 410.387 232.968C405.569 236.838 384.492 246.373 378.798 258.414C372.355 272.038 428.924 354.103 431.552 360.983C434.18 367.864 447.997 369.541 460.699 367.82C473.4 366.099 484.547 363.564 493.745 353.242C495.318 351.475 496.8 348.811 497.913 346.526C499.224 343.836 499.566 340.801 498.858 337.901C495.572 324.474 487.191 285.737 481.67 260.108C490.888 265.945 510.045 277.807 521.195 281.993C536.086 287.584 547.474 283.712 547.474 278.983C547.472 274.254 544.407 268.233 537.837 263.932Z" stroke="#263238" stroke-width="0.9124" stroke-miterlimit="10" stroke-linecap="round" stroke-linejoin="round"/>
<path d="M385.837 249.616C385.837 249.616 380.576 255.302 378.531 257.884C367.566 271.733 332.639 316.084 332.246 319.656C331.873 323.054 333.523 325.646 342.063 328.871C350.604 332.096 407.716 275.879 407.716 275.879" fill="white"/>
<mask id="mask2_1226_9997" style="mask-type:luminance" maskUnits="userSpaceOnUse" x="332" y="249" width="76" height="81">
<path d="M385.837 249.616C385.837 249.616 380.576 255.302 378.531 257.884C367.566 271.733 332.639 316.084 332.246 319.656C331.873 323.054 333.523 325.646 342.063 328.871C350.604 332.096 407.716 275.879 407.716 275.879" fill="white"/>
</mask>
<g mask="url(#mask2_1226_9997)">
<g opacity="0.5">
<path opacity="0.8" d="M389.1 248.642L347.055 306.271C347.055 306.271 351.434 311.002 356.69 315.732C361.946 320.463 371.143 323.474 364.135 323.044C357.128 322.614 343.988 317.453 343.988 317.453C343.988 317.453 340.047 320.463 344.863 323.474C349.682 326.484 350.557 324.334 364.573 331.215C378.588 338.096 401.012 342.544 401.012 342.544L399.194 346.157L339.609 331.215C339.609 331.215 330.941 326.959 332.209 319.841C333.477 312.723 353.559 290.176 353.559 290.176L382.342 253.119C382.342 253.119 385.044 249.195 389.1 248.642Z" fill="#C6FF00"/>
</g>
</g>
<path d="M385.837 249.616C385.837 249.616 380.576 255.302 378.531 257.884C367.566 271.733 332.639 316.084 332.246 319.656C331.873 323.054 333.523 325.646 342.063 328.871C350.604 332.096 407.716 275.879 407.716 275.879" stroke="#263238" stroke-width="0.9124" stroke-miterlimit="10" stroke-linecap="round" stroke-linejoin="round"/>
<path d="M501.431 247.043L481.67 260.111C484.492 259.715 498.204 254.963 498.204 254.963" stroke="#263238" stroke-width="0.6843" stroke-miterlimit="10" stroke-linecap="round" stroke-linejoin="round"/>
<path d="M500.625 254.567L505.062 253.775" stroke="#263238" stroke-width="0.6843" stroke-miterlimit="10" stroke-linecap="round" stroke-linejoin="round"/>
<path d="M354.241 305.97C354.241 305.97 350.202 305.649 345.363 307.629" stroke="#263238" stroke-width="0.9124" stroke-miterlimit="10" stroke-linecap="round" stroke-linejoin="round"/>
<path d="M397.305 286.55C397.305 286.55 408.398 283.216 411.342 280.993" stroke="#263238" stroke-width="0.6843" stroke-miterlimit="10" stroke-linecap="round" stroke-linejoin="round"/>
<path d="M414.057 279.88C414.057 279.88 415.868 278.325 416.546 278.325" stroke="#263238" stroke-width="0.6843" stroke-miterlimit="10" stroke-linecap="round" stroke-linejoin="round"/>
<path d="M481.671 260.11L479.869 241.934" stroke="#263238" stroke-width="0.9124" stroke-miterlimit="10" stroke-linecap="round" stroke-linejoin="round"/>
<path d="M332.209 319.84C332.209 319.84 329.655 329.417 346.006 333.388C353.765 335.271 405.132 347.58 405.132 347.58C405.132 347.58 409.73 337.904 407.104 337.904C404.476 337.904 357.175 306.94 357.175 306.94" fill="white"/>
<mask id="mask3_1226_9997" style="mask-type:luminance" maskUnits="userSpaceOnUse" x="332" y="306" width="76" height="42">
<path d="M332.209 319.84C332.209 319.84 329.655 329.417 346.006 333.388C353.765 335.271 405.132 347.58 405.132 347.58C405.132 347.58 409.73 337.904 407.104 337.904C404.476 337.904 357.175 306.94 357.175 306.94" fill="white"/>
</mask>
<g mask="url(#mask3_1226_9997)">
<path opacity="0.5" d="M389.101 248.642L347.055 306.271C347.055 306.271 351.435 311.003 356.691 315.732C361.947 320.464 371.144 323.474 364.135 323.044C357.128 322.614 343.988 317.453 343.988 317.453C343.988 317.453 340.047 320.464 344.864 323.474C349.682 326.484 350.558 324.334 364.573 331.216C378.589 338.096 401.021 342.518 401.021 342.518L399.438 346.217L339.608 331.216C339.608 331.216 328.276 325.95 332.208 319.841C336.669 312.909 353.559 290.176 353.559 290.176L382.966 253.375C382.969 253.374 383.845 249.072 389.101 248.642Z" fill="#C6FF00"/>
</g>
<path d="M332.209 319.84C332.209 319.84 329.655 329.417 346.006 333.388C353.765 335.271 405.132 347.58 405.132 347.58C405.132 347.58 409.73 337.904 407.104 337.904C404.476 337.904 357.175 306.94 357.175 306.94" stroke="#263238" stroke-width="0.9124" stroke-miterlimit="10" stroke-linecap="round" stroke-linejoin="round"/>
<path d="M407.103 337.903C407.103 337.903 423.965 345.644 425.278 347.794C426.592 349.944 429.659 361.125 429.659 364.566C429.659 368.008 429.221 368.007 427.031 368.007C424.841 368.007 419.147 359.835 417.834 358.116C416.519 356.395 413.453 356.395 409.512 353.816C405.571 351.235 405.133 347.58 405.133 347.58L407.103 337.903Z" fill="white" stroke="#263238" stroke-width="0.9124" stroke-miterlimit="10" stroke-linecap="round" stroke-linejoin="round"/>
<path d="M399.904 345.916L402.529 337.927" stroke="#263238" stroke-width="0.9124" stroke-miterlimit="10" stroke-linecap="round" stroke-linejoin="round"/>
<path opacity="0.4" d="M439.338 261.299C439.338 261.299 412.327 246.216 402.637 247.575C392.947 248.934 384.643 250.294 384.643 250.294L402.628 237.936C411.513 242.124 424.5 251.397 439.338 261.299Z" fill="#C6FF00"/>
<path d="M527.762 277.694C527.762 277.694 523.383 292.317 521.631 300.918C519.878 309.519 507.615 343.925 507.615 343.925L518.126 350.375C518.126 350.375 541.339 303.069 545.718 292.746C550.098 282.426 548.783 274.684 544.404 270.383" fill="white"/>
<path d="M527.762 277.694C527.762 277.694 523.383 292.317 521.631 300.918C519.878 309.519 507.615 343.925 507.615 343.925L518.126 350.375C518.126 350.375 541.339 303.069 545.718 292.746C550.098 282.426 548.783 274.684 544.404 270.383" stroke="#263238" stroke-width="0.9124" stroke-miterlimit="10" stroke-linecap="round" stroke-linejoin="round"/>
<path d="M509.609 338.957C510.397 338.957 520.369 344.369 520.369 344.369L509.609 338.957Z" fill="#263238"/>
<path d="M440.535 261.299C438.116 260.903 425.21 252.587 416.339 245.855C407.467 239.123 402.627 237.935 402.627 237.935L396.577 241.895C396.577 241.895 394.965 237.538 397.384 233.183C399.803 228.826 408.272 224.471 416.742 221.303C425.21 218.135 434.889 215.362 440.938 215.362C446.987 215.362 448.6 217.738 448.6 220.907C448.6 224.074 448.6 233.975 446.584 241.499C444.568 249.023 440.535 261.299 440.535 261.299Z" fill="white"/>
<mask id="mask4_1226_9997" style="mask-type:luminance" maskUnits="userSpaceOnUse" x="396" y="215" width="53" height="47">
<path d="M440.535 261.299C438.116 260.903 425.21 252.587 416.339 245.855C407.467 239.123 402.627 237.935 402.627 237.935L396.577 241.895C396.577 241.895 394.965 237.538 397.384 233.183C399.803 228.826 408.272 224.471 416.742 221.303C425.21 218.135 434.889 215.362 440.938 215.362C446.987 215.362 448.6 217.738 448.6 220.907C448.6 224.074 448.6 233.975 446.584 241.499C444.568 249.023 440.535 261.299 440.535 261.299Z" fill="white"/>
</mask>
<g mask="url(#mask4_1226_9997)">
<g opacity="0.5">
<path d="M436.736 220.004C436.736 220.004 433.012 230.974 429.288 234.266C425.564 237.556 419.977 240.482 419.977 240.482C419.977 240.482 417.742 232.803 412.156 232.803C406.57 232.803 398.004 236.459 398.004 236.459C398.004 236.459 398.004 233.534 405.08 229.877C412.156 226.22 412.156 226.22 412.156 226.22L428.542 220.004H436.736Z" fill="#C6FF00"/>
</g>
</g>
<path d="M440.535 261.299C438.116 260.903 425.21 252.587 416.339 245.855C407.467 239.123 402.627 237.935 402.627 237.935L396.577 241.895C396.577 241.895 394.965 237.538 397.384 233.183C399.803 228.826 408.272 224.471 416.742 221.303C425.21 218.135 434.889 215.362 440.938 215.362C446.987 215.362 448.6 217.738 448.6 220.907C448.6 224.074 448.6 233.975 446.584 241.499C444.568 249.023 440.535 261.299 440.535 261.299Z" stroke="#263238" stroke-width="0.9124" stroke-miterlimit="10" stroke-linecap="round" stroke-linejoin="round"/>
<path d="M404.695 211.034C404.695 211.034 411.702 217.915 414.33 229.096C416.958 240.278 433.435 253.426 437.376 253.426C441.317 253.426 441.047 234.258 439.733 228.667C438.42 223.076 433.164 208.024 433.164 208.024C433.164 208.024 412.14 198.133 404.695 211.034Z" fill="white"/>
<mask id="mask5_1226_9997" style="mask-type:luminance" maskUnits="userSpaceOnUse" x="404" y="204" width="37" height="50">
<path d="M404.695 211.034C404.695 211.034 411.702 217.915 414.33 229.096C416.958 240.278 433.435 253.426 437.376 253.426C441.317 253.426 441.047 234.258 439.733 228.667C438.42 223.076 433.164 208.024 433.164 208.024C433.164 208.024 412.14 198.133 404.695 211.034Z" fill="white"/>
</mask>
<g mask="url(#mask5_1226_9997)">
<g opacity="0.5">
<path d="M436.736 220.004C436.736 220.004 433.012 230.974 429.288 234.266C425.564 237.556 419.977 240.482 419.977 240.482C419.977 240.482 417.742 232.803 412.156 232.803C406.57 232.803 398.004 236.459 398.004 236.459C398.004 236.459 398.004 233.534 405.08 229.877C412.156 226.22 412.156 226.22 412.156 226.22L428.542 220.004H436.736Z" fill="#C6FF00"/>
</g>
</g>
<path d="M404.695 211.034C404.695 211.034 411.702 217.915 414.33 229.096C416.958 240.278 433.435 253.426 437.376 253.426C441.317 253.426 441.047 234.258 439.733 228.667C438.42 223.076 433.164 208.024 433.164 208.024C433.164 208.024 412.14 198.133 404.695 211.034Z" stroke="#263238" stroke-width="0.9124" stroke-miterlimit="10" stroke-linecap="round" stroke-linejoin="round"/>
<path d="M390.804 190.302C390.804 190.302 395.56 203.377 402.217 214.118C408.876 224.859 421.715 230.929 428.849 228.128C435.983 225.327 440.824 216.304 438.922 202.296C438.504 199.217 435.774 197.96 434.888 195.168C431.745 185.253 428.533 175.735 427.42 172.091C425.993 167.422 414.58 162.752 402.691 166.021C390.804 169.289 388.902 179.095 390.804 190.302Z" fill="white"/>
<mask id="mask6_1226_9997" style="mask-type:luminance" maskUnits="userSpaceOnUse" x="390" y="164" width="50" height="65">
<path d="M390.804 190.302C390.804 190.302 395.56 203.377 402.217 214.118C408.876 224.859 421.715 230.929 428.849 228.128C435.983 225.327 440.824 216.304 438.922 202.296C438.504 199.217 435.774 197.96 434.888 195.168C431.745 185.253 428.533 175.735 427.42 172.091C425.993 167.422 414.58 162.752 402.691 166.021C390.804 169.289 388.902 179.095 390.804 190.302Z" fill="white"/>
</mask>
<g mask="url(#mask6_1226_9997)">
<path opacity="0.5" d="M430.273 181.736C430.273 181.736 425.934 184.898 416.252 183.07C406.569 181.241 399.866 181.606 400.237 184.167C400.61 186.726 401.355 190.018 401.355 190.018C401.355 190.018 389.704 180.148 400.259 177.477C407.866 175.553 412.26 178.491 414.122 178.856C415.982 179.222 430.273 181.736 430.273 181.736Z" fill="#C6FF00"/>
</g>
<path d="M390.804 190.302C390.804 190.302 395.56 203.377 402.217 214.118C408.876 224.859 421.715 230.929 428.849 228.128C435.983 225.327 440.824 216.304 438.922 202.296C438.504 199.217 435.774 197.96 434.888 195.168C431.745 185.253 428.533 175.735 427.42 172.091C425.993 167.422 414.58 162.752 402.691 166.021C390.804 169.289 388.902 179.095 390.804 190.302Z" stroke="#263238" stroke-width="0.9124" stroke-miterlimit="10" stroke-linecap="round" stroke-linejoin="round"/>
<path d="M399.364 205.713C399.364 205.713 391.755 202.444 391.28 205.713C390.805 208.983 394.133 211.317 397.462 212.718C400.791 214.12 402.693 212.252 402.693 212.252" fill="white"/>
<path d="M399.364 205.713C399.364 205.713 391.755 202.444 391.28 205.713C390.805 208.983 394.133 211.317 397.462 212.718C400.791 214.12 402.693 212.252 402.693 212.252" stroke="#263238" stroke-width="0.9124" stroke-miterlimit="10" stroke-linecap="round" stroke-linejoin="round"/>
<path d="M430.453 187.248C430.453 187.248 421.984 185.268 425.613 196.355C426.333 198.554 431.259 201.108 431.259 201.108C431.259 201.108 430.856 204.671 428.84 205.067" fill="white"/>
<path d="M430.453 187.248C430.453 187.248 421.984 185.268 425.613 196.355C426.333 198.554 431.259 201.108 431.259 201.108C431.259 201.108 430.856 204.671 428.84 205.067" stroke="#263238" stroke-width="0.9124" stroke-miterlimit="10" stroke-linecap="round" stroke-linejoin="round"/>
<path d="M424.404 212.987C424.404 212.987 418.355 214.175 415.936 211.403L424.404 212.987Z" fill="white"/>
<path d="M424.404 212.987C424.404 212.987 418.355 214.175 415.936 211.403" stroke="#263238" stroke-width="0.9124" stroke-miterlimit="10" stroke-linecap="round" stroke-linejoin="round"/>
<path d="M415.532 194.376C415.532 194.376 411.095 192.792 408.676 194.772C406.257 196.751 405.854 198.336 405.854 198.336" fill="white"/>
<path d="M415.532 194.376C415.532 194.376 411.095 192.792 408.676 194.772C406.257 196.751 405.854 198.336 405.854 198.336" stroke="#263238" stroke-width="0.9124" stroke-miterlimit="10" stroke-linecap="round" stroke-linejoin="round"/>
<path d="M415.418 201.156C415.988 202.463 415.868 203.766 415.151 204.067C414.434 204.369 413.392 203.554 412.821 202.246C412.251 200.94 412.371 199.636 413.088 199.335C413.805 199.034 414.849 199.849 415.418 201.156Z" fill="#263238"/>
<path d="M429.914 194.236C430.484 195.542 430.364 196.846 429.647 197.147C428.93 197.448 427.888 196.634 427.317 195.326C426.747 194.019 426.867 192.716 427.584 192.415C428.301 192.113 429.343 192.929 429.914 194.236Z" fill="#263238"/>
<path d="M397.249 207.594C397.249 207.594 402.067 204.154 401.19 201.143C400.314 198.133 398.562 198.133 400.314 196.412C402.067 194.691 403.38 193.831 402.942 191.251C402.505 188.67 395.496 184.37 397.686 181.79C399.877 179.209 399 176.199 416.958 180.499C434.915 184.8 446.302 177.918 441.046 171.468C435.79 165.017 431.411 164.156 431.411 164.156C431.411 164.156 441.484 159.856 433.164 155.554C424.842 151.254 406.009 151.254 395.499 159.425C384.988 167.595 387.177 174.477 387.177 174.477C387.177 174.477 381.483 175.336 381.046 183.938C380.606 192.542 397.249 207.594 397.249 207.594Z" fill="#263238"/>
<path d="M397.133 178.207C397.133 178.207 398.619 173.83 406.048 173.83C413.477 173.83 420.163 180.031 430.191 177.842C440.219 175.653 434.648 169.817 434.648 169.817" stroke="white" stroke-width="0.6843" stroke-miterlimit="10" stroke-linecap="round" stroke-linejoin="round"/>
<path d="M393.789 177.112C393.789 177.112 394.511 168.057 402.693 166.019C410.875 163.982 421.646 167.993 424.618 166.899" stroke="white" stroke-width="0.6843" stroke-miterlimit="10" stroke-linecap="round" stroke-linejoin="round"/>
<path d="M389.704 177.477C389.704 177.477 385.247 177.477 384.876 183.313C384.504 189.148 388.218 191.702 388.218 191.702" stroke="white" stroke-width="0.6843" stroke-miterlimit="10" stroke-linecap="round" stroke-linejoin="round"/>
<path d="M393.789 181.124C393.789 181.124 388.961 182.948 391.189 187.689" stroke="white" stroke-width="0.6843" stroke-miterlimit="10" stroke-linecap="round" stroke-linejoin="round"/>
<path d="M390.445 192.796L392.303 195.349" stroke="white" stroke-width="0.6843" stroke-miterlimit="10" stroke-linecap="round" stroke-linejoin="round"/>
</svg>
