<svg width="14" height="14" viewBox="0 0 14 14" fill="none" xmlns="http://www.w3.org/2000/svg">
<path d="M7 1.46624C8.80231 1.46624 9.01583 1.4731 9.72756 1.50556C10.3857 1.53559 10.7431 1.64556 10.981 1.73798C11.296 1.86044 11.5209 2.00669 11.7571 2.24288C11.9933 2.47913 12.1396 2.70396 12.262 3.01902C12.3544 3.2569 12.4644 3.61431 12.4944 4.27238C12.5269 4.98417 12.5338 5.19764 12.5338 6.99994C12.5338 8.80231 12.5269 9.01578 12.4944 9.72756C12.4644 10.3857 12.3544 10.743 12.262 10.9809C12.1396 11.296 11.9933 11.5209 11.7571 11.7571C11.5209 11.9933 11.296 12.1395 10.981 12.262C10.7431 12.3544 10.3857 12.4644 9.72756 12.4944C9.01595 12.5268 8.80248 12.5338 7 12.5338C5.19753 12.5338 4.98411 12.5268 4.27244 12.4944C3.61431 12.4644 3.2569 12.3544 3.01902 12.262C2.70396 12.1395 2.47913 11.9933 2.24294 11.7571C2.00674 11.5209 1.86044 11.296 1.73798 10.9809C1.64556 10.743 1.53559 10.3857 1.50556 9.72756C1.4731 9.01578 1.46624 8.80231 1.46624 6.99994C1.46624 5.19764 1.4731 4.98417 1.50556 4.27238C1.53559 3.61431 1.64556 3.2569 1.73798 3.01902C1.86044 2.70396 2.00669 2.47913 2.24294 2.24294C2.47913 2.00669 2.70396 1.86044 3.01902 1.73798C3.2569 1.64556 3.61431 1.53559 4.27244 1.50556C4.98417 1.4731 5.19769 1.46624 7 1.46624ZM7 0.25C5.16681 0.25 4.93692 0.257762 4.21698 0.290612C3.49855 0.323406 3.00783 0.437481 2.57847 0.604375C2.1346 0.776838 1.75818 1.00763 1.38293 1.38293C1.00763 1.75818 0.776838 2.1346 0.604375 2.57847C0.437481 3.00783 0.323406 3.49849 0.290612 4.21698C0.257762 4.93692 0.25 5.16681 0.25 6.99994C0.25 8.83319 0.257762 9.06303 0.290612 9.78297C0.323406 10.5015 0.437481 10.9921 0.604375 11.4215C0.776838 11.8653 1.00763 12.2418 1.38293 12.6171C1.75818 12.9923 2.1346 13.2231 2.57847 13.3956C3.00783 13.5625 3.49855 13.6765 4.21698 13.7093C4.93692 13.7422 5.16681 13.7499 7 13.7499C8.83319 13.7499 9.06308 13.7422 9.78303 13.7093C10.5015 13.6765 10.9922 13.5625 11.4215 13.3956C11.8654 13.2231 12.2418 12.9923 12.6171 12.6171C12.9923 12.2418 13.2232 11.8653 13.3956 11.4215C13.5625 10.9921 13.6766 10.5015 13.7094 9.78297C13.7422 9.06303 13.75 8.83319 13.75 6.99994C13.75 5.16681 13.7422 4.93692 13.7094 4.21698C13.6766 3.49849 13.5625 3.00783 13.3956 2.57847C13.2232 2.1346 12.9923 1.75818 12.6171 1.38293C12.2418 1.00763 11.8654 0.776838 11.4215 0.604375C10.9922 0.437481 10.5015 0.323406 9.78303 0.290612C9.06308 0.257762 8.83319 0.25 7 0.25Z" fill="white"/>
<path d="M7.00329 3.53662C5.08893 3.53662 3.53711 5.08845 3.53711 7.0028C3.53711 8.91716 5.08893 10.469 7.00329 10.469C8.91765 10.469 10.4695 8.91716 10.4695 7.0028C10.4695 5.08845 8.91765 3.53662 7.00329 3.53662ZM7.00329 9.2528C5.76067 9.2528 4.75329 8.24542 4.75329 7.0028C4.75329 5.76018 5.76067 4.7528 7.00329 4.7528C8.24597 4.7528 9.25329 5.76018 9.25329 7.0028C9.25329 8.24542 8.24597 9.2528 7.00329 9.2528Z" fill="white"/>
<path d="M11.4149 3.39795C11.4149 3.84525 11.0523 4.20795 10.6049 4.20795C10.1576 4.20795 9.79492 3.84525 9.79492 3.39795C9.79492 2.95059 10.1576 2.58789 10.6049 2.58789C11.0523 2.58789 11.4149 2.95059 11.4149 3.39795Z" fill="white"/>
</svg>
