<svg width="14" height="14" viewBox="0 0 14 14" fill="none" xmlns="http://www.w3.org/2000/svg">
<path d="M4.66699 11.0833H2.91699V5.25H4.66699V11.0833ZM11.0837 11.0833H9.33366V7.96717C9.33366 7.15517 9.04433 6.75092 8.47091 6.75092C8.01649 6.75092 7.72833 6.97725 7.58366 7.4305C7.58366 8.16667 7.58366 11.0833 7.58366 11.0833H5.83366C5.83366 11.0833 5.85699 5.83333 5.83366 5.25H7.21499L7.32174 6.41667H7.35791C7.71666 5.83333 8.29008 5.43783 9.07641 5.43783C9.67433 5.43783 10.1579 5.60408 10.5272 6.02175C10.8987 6.44 11.0837 7.00117 11.0837 7.78925V11.0833Z" fill="white"/>
<path d="M3.79186 4.66675C4.29122 4.66675 4.69603 4.275 4.69603 3.79175C4.69603 3.3085 4.29122 2.91675 3.79186 2.91675C3.2925 2.91675 2.8877 3.3085 2.8877 3.79175C2.8877 4.275 3.2925 4.66675 3.79186 4.66675Z" fill="white"/>
</svg>
