<svg width="14" height="14" viewBox="0 0 14 14" fill="none" xmlns="http://www.w3.org/2000/svg">
<path d="M3.03908 14.0001H0.0498047V4H3.03908V14.0001ZM13.9998 14.0001H11.0105V8.65805C11.0105 7.26603 10.5163 6.57303 9.53677 6.57303C8.76056 6.57303 8.26832 6.96103 8.02121 7.73804C8.02121 9.00005 8.02121 14.0001 8.02121 14.0001H5.03193C5.03193 14.0001 5.07179 5.00001 5.03193 4H7.39147L7.57381 6.00002H7.63559C8.24839 5.00001 9.22788 4.322 10.5711 4.322C11.5924 4.322 12.4184 4.60701 13.0492 5.32301C13.6839 6.04002 13.9998 7.00203 13.9998 8.35304V14.0001Z" fill="white"/>
<path d="M1.54446 3.00003C2.39744 3.00003 3.08892 2.32845 3.08892 1.50001C3.08892 0.671579 2.39744 0 1.54446 0C0.691478 0 0 0.671579 0 1.50001C0 2.32845 0.691478 3.00003 1.54446 3.00003Z" fill="white"/>
</svg>
