<svg width="20" height="23" viewBox="0 0 20 23" fill="none" xmlns="http://www.w3.org/2000/svg">
<path d="M19 9.5C19 16.5 10 22.5 10 22.5C10 22.5 1 16.5 1 9.5C1 7.11305 1.94821 4.82387 3.63604 3.13604C5.32387 1.44821 7.61305 0.5 10 0.5C12.3869 0.5 14.6761 1.44821 16.364 3.13604C18.0518 4.82387 19 7.11305 19 9.5Z" stroke="#313131" stroke-linecap="round" stroke-linejoin="round"/>
<path d="M10 12.5C11.6569 12.5 13 11.1569 13 9.5C13 7.84315 11.6569 6.5 10 6.5C8.34315 6.5 7 7.84315 7 9.5C7 11.1569 8.34315 12.5 10 12.5Z" stroke="#313131" stroke-linecap="round" stroke-linejoin="round"/>
</svg>
