<svg width="30" height="31" viewBox="0 0 30 31" fill="none" xmlns="http://www.w3.org/2000/svg">
<path fill-rule="evenodd" clip-rule="evenodd" d="M18.983 18.5896H19.9705L25.2705 23.9146C25.783 24.4271 25.783 25.2646 25.2705 25.7771C24.758 26.2896 23.9205 26.2896 23.408 25.7771L18.0955 20.4646V19.4771L17.758 19.1271C16.008 20.6271 13.6205 21.4021 11.083 20.9771C7.60801 20.3896 4.83301 17.4896 4.40801 13.9896C3.75801 8.70215 8.20801 4.25215 13.4955 4.90215C16.9955 5.32715 19.8955 8.10215 20.483 11.5771C20.908 14.1146 20.133 16.5021 18.633 18.2521L18.983 18.5896ZM6.84551 12.9646C6.84551 16.0771 9.35801 18.5896 12.4705 18.5896C15.583 18.5896 18.0955 16.0771 18.0955 12.9646C18.0955 9.85215 15.583 7.33965 12.4705 7.33965C9.35801 7.33965 6.84551 9.85215 6.84551 12.9646Z" fill="white"/>
</svg>
