<svg width="80" height="80" viewBox="0 0 80 80" fill="none" xmlns="http://www.w3.org/2000/svg">
<path fill-rule="evenodd" clip-rule="evenodd" d="M40.0003 6.66663C21.6003 6.66663 6.66699 21.6 6.66699 40C6.66699 58.4 21.6003 73.3333 40.0003 73.3333C58.4003 73.3333 73.3337 58.4 73.3337 40C73.3337 21.6 58.4003 6.66663 40.0003 6.66663ZM40.0003 66.6666C25.3003 66.6666 13.3337 54.7 13.3337 40C13.3337 25.3 25.3003 13.3333 40.0003 13.3333C54.7003 13.3333 66.667 25.3 66.667 40C66.667 54.7 54.7003 66.6666 40.0003 66.6666ZM33.3337 47.2333L52.9337 27.6333C54.2337 26.3333 56.367 26.3333 57.667 27.6333C58.967 28.9333 58.967 31.0333 57.667 32.3333L35.7003 54.3C34.4003 55.6 32.3003 55.6 31.0003 54.3L22.367 45.6666C21.067 44.3666 21.067 42.2666 22.367 40.9666C22.9898 40.3425 23.8353 39.9917 24.717 39.9917C25.5987 39.9917 26.4442 40.3425 27.067 40.9666L33.3337 47.2333Z" fill="#67A842"/>
</svg>
