<svg width="19" height="20" viewBox="0 0 19 20" fill="none" xmlns="http://www.w3.org/2000/svg">
<mask id="path-1-outside-1_219_2596" maskUnits="userSpaceOnUse" x="-0.5" y="0" width="20" height="20" fill="black">
<rect fill="white" x="-0.5" width="20" height="20"/>
<path d="M16.7 2.13685H7.88944V2.0421C7.88944 1.46751 7.42194 1 6.84734 1H3.81579C3.2412 1 2.77369 1.46751 2.77369 2.0421V2.13685H2.3C1.3075 2.13685 0.5 2.94435 0.5 3.93684V4.69474V15.3053C0.5 16.2978 1.3075 17.1053 2.3 17.1053H8.83683V17.9579C8.83683 18.5325 9.30434 19 9.87893 19H14.0473C14.6219 19 15.0894 18.5325 15.0894 17.9579V17.1053H16.7C17.6925 17.1053 18.5 16.2978 18.5 15.3053V4.69474V3.93684C18.5 2.94435 17.6925 2.13685 16.7 2.13685ZM3.3421 2.0421C3.3421 1.78089 3.55458 1.56841 3.81579 1.56841H6.84738C7.10859 1.56841 7.32107 1.78089 7.32107 2.0421V4.4105H3.3421V2.0421ZM1.06841 3.93684C1.06841 3.25773 1.62088 2.70525 2.3 2.70525H2.77369V4.4105H1.06841V3.93684ZM8.83683 10.4056V14.6421H3.43684C3.17563 14.6421 2.96315 14.4296 2.96315 14.1684V7.72629C2.96315 7.46508 3.17563 7.2526 3.43684 7.2526H10.7316V8.5847L9.30089 9.53849C9.01029 9.73223 8.83683 10.0564 8.83683 10.4056ZM14.521 17.9579C14.521 18.2191 14.3085 18.4316 14.0473 18.4316H9.87893C9.61772 18.4316 9.40524 18.2191 9.40524 17.9579V10.4056C9.40524 10.2469 9.48409 10.0995 9.61617 10.0115L10.7316 9.26793V9.43158C10.7316 9.69159 10.8128 9.93287 10.9509 10.1319C10.9315 10.2112 10.9211 10.2939 10.9211 10.379C10.9211 10.9536 11.3886 11.4211 11.9632 11.4211C12.5378 11.4211 13.0053 10.9536 13.0053 10.379C13.0053 9.80437 12.5378 9.33687 11.9632 9.33687C11.7176 9.33687 11.4918 9.42244 11.3135 9.56503C11.3047 9.52193 11.3 9.47732 11.3 9.43161V8.88905L11.7004 8.62207C11.7802 8.56888 11.8717 8.54227 11.9632 8.54227C12.0546 8.54227 12.1461 8.56888 12.2259 8.62207L14.3101 10.0115C14.4422 10.0996 14.5211 10.2469 14.5211 10.4057L14.521 17.9579ZM11.9631 10.0947C11.8524 10.0947 11.7481 10.0671 11.6562 10.0189C11.7389 9.9482 11.846 9.90524 11.9631 9.90524C12.2243 9.90524 12.4368 10.1177 12.4368 10.3789C12.4368 10.6401 12.2243 10.8526 11.9631 10.8526C11.7769 10.8526 11.6159 10.7443 11.5385 10.5877C11.671 10.6365 11.814 10.6631 11.9631 10.6631C12.1201 10.6631 12.2473 10.5359 12.2473 10.3789C12.2473 10.2219 12.1201 10.0947 11.9631 10.0947ZM14.6254 9.53849L12.5412 8.14904C12.19 7.91487 11.7362 7.9149 11.3851 8.14904L11.3 8.20582V7.25263H15.5632C15.8244 7.25263 16.0369 7.46512 16.0369 7.72633V14.1684C16.0369 14.4296 15.8244 14.6421 15.5632 14.6421H15.0895V10.4056C15.0894 10.0564 14.916 9.73223 14.6254 9.53849ZM11.3649 6.68419C11.4715 6.46053 11.6992 6.30524 11.9631 6.30524C12.227 6.30524 12.4546 6.46053 12.5614 6.68419H11.3649ZM17.9316 15.3052C17.9316 15.9843 17.3791 16.5368 16.7 16.5368H15.0894V15.2105H15.5631C16.1377 15.2105 16.6052 14.743 16.6052 14.1684V7.72629C16.6052 7.1517 16.1377 6.68419 15.5631 6.68419H13.1613C13.0325 6.14173 12.5444 5.73684 11.9631 5.73684C11.3819 5.73684 10.8937 6.14173 10.765 6.68419H3.43684C2.86225 6.68419 2.39474 7.1517 2.39474 7.72629V14.1684C2.39474 14.743 2.86225 15.2105 3.43684 15.2105H8.83683V16.5368H2.3C1.62088 16.5368 1.06841 15.9843 1.06841 15.3052V4.97894H17.9315L17.9316 15.3052ZM17.9316 4.41054H7.88944V2.70525H16.7C17.3791 2.70525 17.9316 3.25773 17.9316 3.93684V4.41054Z"/>
</mask>
<path d="M16.7 2.13685H7.88944V2.0421C7.88944 1.46751 7.42194 1 6.84734 1H3.81579C3.2412 1 2.77369 1.46751 2.77369 2.0421V2.13685H2.3C1.3075 2.13685 0.5 2.94435 0.5 3.93684V4.69474V15.3053C0.5 16.2978 1.3075 17.1053 2.3 17.1053H8.83683V17.9579C8.83683 18.5325 9.30434 19 9.87893 19H14.0473C14.6219 19 15.0894 18.5325 15.0894 17.9579V17.1053H16.7C17.6925 17.1053 18.5 16.2978 18.5 15.3053V4.69474V3.93684C18.5 2.94435 17.6925 2.13685 16.7 2.13685ZM3.3421 2.0421C3.3421 1.78089 3.55458 1.56841 3.81579 1.56841H6.84738C7.10859 1.56841 7.32107 1.78089 7.32107 2.0421V4.4105H3.3421V2.0421ZM1.06841 3.93684C1.06841 3.25773 1.62088 2.70525 2.3 2.70525H2.77369V4.4105H1.06841V3.93684ZM8.83683 10.4056V14.6421H3.43684C3.17563 14.6421 2.96315 14.4296 2.96315 14.1684V7.72629C2.96315 7.46508 3.17563 7.2526 3.43684 7.2526H10.7316V8.5847L9.30089 9.53849C9.01029 9.73223 8.83683 10.0564 8.83683 10.4056ZM14.521 17.9579C14.521 18.2191 14.3085 18.4316 14.0473 18.4316H9.87893C9.61772 18.4316 9.40524 18.2191 9.40524 17.9579V10.4056C9.40524 10.2469 9.48409 10.0995 9.61617 10.0115L10.7316 9.26793V9.43158C10.7316 9.69159 10.8128 9.93287 10.9509 10.1319C10.9315 10.2112 10.9211 10.2939 10.9211 10.379C10.9211 10.9536 11.3886 11.4211 11.9632 11.4211C12.5378 11.4211 13.0053 10.9536 13.0053 10.379C13.0053 9.80437 12.5378 9.33687 11.9632 9.33687C11.7176 9.33687 11.4918 9.42244 11.3135 9.56503C11.3047 9.52193 11.3 9.47732 11.3 9.43161V8.88905L11.7004 8.62207C11.7802 8.56888 11.8717 8.54227 11.9632 8.54227C12.0546 8.54227 12.1461 8.56888 12.2259 8.62207L14.3101 10.0115C14.4422 10.0996 14.5211 10.2469 14.5211 10.4057L14.521 17.9579ZM11.9631 10.0947C11.8524 10.0947 11.7481 10.0671 11.6562 10.0189C11.7389 9.9482 11.846 9.90524 11.9631 9.90524C12.2243 9.90524 12.4368 10.1177 12.4368 10.3789C12.4368 10.6401 12.2243 10.8526 11.9631 10.8526C11.7769 10.8526 11.6159 10.7443 11.5385 10.5877C11.671 10.6365 11.814 10.6631 11.9631 10.6631C12.1201 10.6631 12.2473 10.5359 12.2473 10.3789C12.2473 10.2219 12.1201 10.0947 11.9631 10.0947ZM14.6254 9.53849L12.5412 8.14904C12.19 7.91487 11.7362 7.9149 11.3851 8.14904L11.3 8.20582V7.25263H15.5632C15.8244 7.25263 16.0369 7.46512 16.0369 7.72633V14.1684C16.0369 14.4296 15.8244 14.6421 15.5632 14.6421H15.0895V10.4056C15.0894 10.0564 14.916 9.73223 14.6254 9.53849ZM11.3649 6.68419C11.4715 6.46053 11.6992 6.30524 11.9631 6.30524C12.227 6.30524 12.4546 6.46053 12.5614 6.68419H11.3649ZM17.9316 15.3052C17.9316 15.9843 17.3791 16.5368 16.7 16.5368H15.0894V15.2105H15.5631C16.1377 15.2105 16.6052 14.743 16.6052 14.1684V7.72629C16.6052 7.1517 16.1377 6.68419 15.5631 6.68419H13.1613C13.0325 6.14173 12.5444 5.73684 11.9631 5.73684C11.3819 5.73684 10.8937 6.14173 10.765 6.68419H3.43684C2.86225 6.68419 2.39474 7.1517 2.39474 7.72629V14.1684C2.39474 14.743 2.86225 15.2105 3.43684 15.2105H8.83683V16.5368H2.3C1.62088 16.5368 1.06841 15.9843 1.06841 15.3052V4.97894H17.9315L17.9316 15.3052ZM17.9316 4.41054H7.88944V2.70525H16.7C17.3791 2.70525 17.9316 3.25773 17.9316 3.93684V4.41054Z" fill="black"/>
<path d="M16.7 2.13685H7.88944V2.0421C7.88944 1.46751 7.42194 1 6.84734 1H3.81579C3.2412 1 2.77369 1.46751 2.77369 2.0421V2.13685H2.3C1.3075 2.13685 0.5 2.94435 0.5 3.93684V4.69474V15.3053C0.5 16.2978 1.3075 17.1053 2.3 17.1053H8.83683V17.9579C8.83683 18.5325 9.30434 19 9.87893 19H14.0473C14.6219 19 15.0894 18.5325 15.0894 17.9579V17.1053H16.7C17.6925 17.1053 18.5 16.2978 18.5 15.3053V4.69474V3.93684C18.5 2.94435 17.6925 2.13685 16.7 2.13685ZM3.3421 2.0421C3.3421 1.78089 3.55458 1.56841 3.81579 1.56841H6.84738C7.10859 1.56841 7.32107 1.78089 7.32107 2.0421V4.4105H3.3421V2.0421ZM1.06841 3.93684C1.06841 3.25773 1.62088 2.70525 2.3 2.70525H2.77369V4.4105H1.06841V3.93684ZM8.83683 10.4056V14.6421H3.43684C3.17563 14.6421 2.96315 14.4296 2.96315 14.1684V7.72629C2.96315 7.46508 3.17563 7.2526 3.43684 7.2526H10.7316V8.5847L9.30089 9.53849C9.01029 9.73223 8.83683 10.0564 8.83683 10.4056ZM14.521 17.9579C14.521 18.2191 14.3085 18.4316 14.0473 18.4316H9.87893C9.61772 18.4316 9.40524 18.2191 9.40524 17.9579V10.4056C9.40524 10.2469 9.48409 10.0995 9.61617 10.0115L10.7316 9.26793V9.43158C10.7316 9.69159 10.8128 9.93287 10.9509 10.1319C10.9315 10.2112 10.9211 10.2939 10.9211 10.379C10.9211 10.9536 11.3886 11.4211 11.9632 11.4211C12.5378 11.4211 13.0053 10.9536 13.0053 10.379C13.0053 9.80437 12.5378 9.33687 11.9632 9.33687C11.7176 9.33687 11.4918 9.42244 11.3135 9.56503C11.3047 9.52193 11.3 9.47732 11.3 9.43161V8.88905L11.7004 8.62207C11.7802 8.56888 11.8717 8.54227 11.9632 8.54227C12.0546 8.54227 12.1461 8.56888 12.2259 8.62207L14.3101 10.0115C14.4422 10.0996 14.5211 10.2469 14.5211 10.4057L14.521 17.9579ZM11.9631 10.0947C11.8524 10.0947 11.7481 10.0671 11.6562 10.0189C11.7389 9.9482 11.846 9.90524 11.9631 9.90524C12.2243 9.90524 12.4368 10.1177 12.4368 10.3789C12.4368 10.6401 12.2243 10.8526 11.9631 10.8526C11.7769 10.8526 11.6159 10.7443 11.5385 10.5877C11.671 10.6365 11.814 10.6631 11.9631 10.6631C12.1201 10.6631 12.2473 10.5359 12.2473 10.3789C12.2473 10.2219 12.1201 10.0947 11.9631 10.0947ZM14.6254 9.53849L12.5412 8.14904C12.19 7.91487 11.7362 7.9149 11.3851 8.14904L11.3 8.20582V7.25263H15.5632C15.8244 7.25263 16.0369 7.46512 16.0369 7.72633V14.1684C16.0369 14.4296 15.8244 14.6421 15.5632 14.6421H15.0895V10.4056C15.0894 10.0564 14.916 9.73223 14.6254 9.53849ZM11.3649 6.68419C11.4715 6.46053 11.6992 6.30524 11.9631 6.30524C12.227 6.30524 12.4546 6.46053 12.5614 6.68419H11.3649ZM17.9316 15.3052C17.9316 15.9843 17.3791 16.5368 16.7 16.5368H15.0894V15.2105H15.5631C16.1377 15.2105 16.6052 14.743 16.6052 14.1684V7.72629C16.6052 7.1517 16.1377 6.68419 15.5631 6.68419H13.1613C13.0325 6.14173 12.5444 5.73684 11.9631 5.73684C11.3819 5.73684 10.8937 6.14173 10.765 6.68419H3.43684C2.86225 6.68419 2.39474 7.1517 2.39474 7.72629V14.1684C2.39474 14.743 2.86225 15.2105 3.43684 15.2105H8.83683V16.5368H2.3C1.62088 16.5368 1.06841 15.9843 1.06841 15.3052V4.97894H17.9315L17.9316 15.3052ZM17.9316 4.41054H7.88944V2.70525H16.7C17.3791 2.70525 17.9316 3.25773 17.9316 3.93684V4.41054Z" stroke="black" stroke-width="0.4" mask="url(#path-1-outside-1_219_2596)"/>
<path d="M15.1839 3.155C14.9716 3.155 14.7997 3.32697 14.7997 3.53921V3.57711C14.7997 3.78935 14.9717 3.96131 15.1839 3.96131C15.3961 3.96131 15.5681 3.78935 15.5681 3.57711V3.53921C15.5681 3.32697 15.3961 3.155 15.1839 3.155Z" fill="black" stroke="black" stroke-width="0.2"/>
<path d="M14.0475 3.155C13.8353 3.155 13.6633 3.32697 13.6633 3.53921V3.57711C13.6633 3.78934 13.8353 3.96131 14.0475 3.96131C14.2597 3.96131 14.4317 3.78934 14.4317 3.57711V3.53923C14.4317 3.53922 14.4317 3.53921 14.4317 3.53921C14.4317 3.32694 14.2597 3.155 14.0475 3.155Z" fill="black" stroke="black" stroke-width="0.2"/>
<path d="M16.3211 3.155C16.1088 3.155 15.9369 3.32697 15.9369 3.53921V3.57711C15.9369 3.78934 16.1088 3.96131 16.3211 3.96131C16.5333 3.96131 16.7053 3.78934 16.7053 3.57711V3.53921C16.7053 3.32697 16.5333 3.155 16.3211 3.155Z" fill="black" stroke="black" stroke-width="0.2"/>
</svg>
