<svg width="14" height="8" viewBox="0 0 14 8" fill="none" xmlns="http://www.w3.org/2000/svg">
<path d="M13.86 1.72633C13.86 1.72633 13.7234 0.942 13.3037 0.596667C12.7711 0.144 12.1746 0.141333 11.9011 0.115667C9.94179 3.97364e-08 7.00306 0 7.00306 0H6.9965C6.9965 0 4.05777 3.97364e-08 2.09891 0.115667C1.82538 0.141333 1.22932 0.144 0.69628 0.596667C0.277024 0.942 0.140044 1.72633 0.140044 1.72633C0.140044 1.72633 0 2.64667 0 3.567V4.42967C0 5.35067 0.140044 6.27067 0.140044 6.27067C0.140044 6.27067 0.276586 7.05467 0.69628 7.39933C1.22932 7.852 1.92823 7.83833 2.23982 7.88567C3.35974 7.973 7 8 7 8C7 8 9.94179 7.996 11.9011 7.88167C12.1746 7.855 12.7711 7.85233 13.3037 7.39967C13.723 7.055 13.86 6.271 13.86 6.271C13.86 6.271 14 5.35067 14 4.43V3.56733C14 2.64667 13.86 1.72633 13.86 1.72633Z" fill="white"/>
<path d="M5 2V6L9 4L5 2Z" fill="#E02F2F"/>
</svg>
