<svg width="14" height="14" viewBox="0 0 14 14" fill="none" xmlns="http://www.w3.org/2000/svg">
<path d="M11.9 5.29475C11.9 5.29475 11.8024 4.7065 11.5027 4.4475C11.1222 4.108 10.6962 4.106 10.5008 4.08675C9.10128 4 7.00219 4 7.00219 4H6.9975C6.9975 4 4.89841 4 3.49922 4.08675C3.30384 4.106 2.87809 4.108 2.49734 4.4475C2.19787 4.7065 2.10003 5.29475 2.10003 5.29475C2.10003 5.29475 2 5.985 2 6.67525V7.32225C2 8.013 2.10003 8.703 2.10003 8.703C2.10003 8.703 2.19756 9.291 2.49734 9.5495C2.87809 9.889 3.37731 9.87875 3.59987 9.91425C4.39981 9.97975 7 10 7 10C7 10 9.10128 9.997 10.5008 9.91125C10.6962 9.89125 11.1222 9.88925 11.5027 9.54975C11.8021 9.29125 11.9 8.70325 11.9 8.70325C11.9 8.70325 12 8.013 12 7.3225V6.6755C12 5.985 11.9 5.29475 11.9 5.29475Z" fill="#E02F2F"/>
<path d="M5.75098 5.5V8.5L8.87695 7L5.75098 5.5Z" fill="white"/>
</svg>
